<svg version="1.1" id="africa" xmlns="http://www.w3.org/2000/svg" xmlns:xlink="http://www.w3.org/1999/xlink" x="0px" y="0px"
   viewBox="0 0 500 500" xml:space="preserve">
<style type="text/css">
  .st0{fill:#F7F2F0;stroke:#B2AAA6;stroke-miterlimit:0; stroke-width:0.5px;}
</style>
<g id="g3892">

  <path class="st0" d="M166,185.4c-0.4-0.5-0.7-1-0.9-1.5c-0.4-0.5-0.2-1,0.6-1.3c-1.6-2.4-0.4-0.4-2.4-1.3c-1.4-0.6-5.3-1.3-4.2-4.3
    c0.4,0.3,0.9,0.3,1.4,0.1c-2.7-2.1-3.9-2.6-4.9-5.9c-0.9-2.7-1.6-5.5-5.4-4.5c-1.4,0.4-2.5,1.8-3.8,2.5c-1.1,0.6-2.8,2.4-3.7,2.8
    c-1.7,0.7-2-0.5-3.7,1c-1.9,1.8,0.5,2.6-2.6,2c0.4,0.8,0,1.7,0.1,2.5c-0.6,0-1.2-0.1-1.1,0.7c-0.8-0.1-2.8-1-2.8-2
    c-2.3,3.1-1.8,10.4-7.7,10.1c2.4,0.6-0.3,5.5-0.3,6.8c-0.1,2.5,0.2,1.1,1.4,2.7c1.3,1.7,2,3.5,4.5,3.9c0-3,5.1-0.7,6-2
    c0,0,1.8,3.4,2.4,3.1c0.5-0.2-0.3-9-0.4-9.6c3.3,0.3,7,0.2,10.3,0c1.9-0.1,3.3-0.5,5.3-0.5c1.7,0,2.7,1,4.5,0.2
    c1-0.5,1.4-1.9,2.4-2.3C162.2,188.3,167.9,188.9,166,185.4C165.5,184.5,166.7,186.7,166,185.4z"/>
  <path class="st0" d="M285.1,137c-0.4-17.7-0.1-35.5-1.3-53.2c-0.1-2.3-1.1-4.4-1.3-6.6c-0.2-1.6,0.2-2.2,0.4-3.9
    c0.2-1.3-0.7-2.9-0.5-4c0.1-0.9,1.4-2.1,1.3-2.9c-0.6-2.6-5.7-2-7.8-2.8c-1.4-0.6-1.7-0.7-2.7-1.5c-0.5-0.4-0.8-1.3-1.7-1.9
    c-4.6-3.2-14.7,0.2-14.3,6.3c0.2,3.3,2.1,5.4-1.8,7.6c-3,1.7-4.3-0.2-6.7-1.9c-3.8-2.6-7.7-1.7-11.5-3.6c-3.3-1.6-2.3-5.1-4.9-6.7
    c-5.6-3.5-12.6-0.8-18-4.5c-0.1,1.1,0.3,3.6-0.1,4.4c-0.6,1.3-2.2,1.1-3.2,1.9c-1.7,1.4-3.4,2.9-3.7,4.9c-0.2,1.1,0.7,2,0.4,3.3
    c-0.6,2-2.4,1.7-3.4,3.2c-1.4,2.2,0.4,2.6,1.1,5.4c0.9,3.2,0.3,7.3,0.3,10.6c0,1.1,0.5,4.1,0.2,4.9c-0.4,1.2-1.5,1.5-1.9,2.5
    c-1.1,2.7,1.6,4.2,2.6,6.7c0.4,1.1,0,2.5,0.8,3.4c1.4,1.6,1.2,0.5,2.7,1c3.3,1.2,3.6,1.8,5.8,4.3c2.2,2.5,3.6,2.2,6.8,3.3
    c3.6,1.3,4.5,4.2,8.4,2.8c2.3-0.8,5.3-3.5,7.7-3.3c2.9,0.2,8.4,4.8,10.8,6.2c3.9,2.2,7.7,4.4,11.6,6.6c6.3,3.5,12.5,7.1,18.8,10.6
    c-0.1-1,0-2-0.1-3C281.6,137,283.4,137,285.1,137C285,131.3,283.4,137,285.1,137z"/>
  <g>
    <path class="st0" d="M419.4,348.2c-1.4-4.5-0.5-9.1-2.5-13.6c-0.2,0.1-0.3,0.2-0.5,0.4c0.2-0.5-0.9-3.9-1.9-3.3
      c0,0.1,0.5-2.5-0.4-1.4c-0.7,0.8-0.2,2.8-2.2,2.8c3.1,1.6-2.4,6.5-2.9,8c-0.6,0-1-1.4-1.5-1.6c-1-0.5,0.2,3.5-0.3,4.1
      c0.2-0.3-1.4,0.3-1.4,1c-0.1,1.1,1.8,1.3,1.3,2.3c0.6-2.5-3.4,1.9-3.1,1.8c-0.1-0.8,0.6-1.4,0.5-2.2c-0.5,0.1-2,2.2-2.2,2.7
      c-0.7,1.5,1.1,1-0.8,2.5c0.4-2.2-0.5-2.1-2.1-0.6c-1.8,1.6-0.9,1.4-0.5,3c-1.2-0.1-1.3-1-2.2-1c-1.6-0.1-1.4,0.3-2.6,1.5
      c0-1-1.2-0.2-1.3,0.4c-0.2-0.3-0.4-0.6-0.6-0.9c-1.7,1.2-3.3,1.3-4.3,2.6c-0.2,0.3-1.5,4-1.8,4.7c-1.1,2.1-0.8,1.7-0.8,3.9
      c0.1,3.7,1.5,6.9,1.7,10.5c0.1,2.5-0.9,3.7-2.1,6c-2.4,4.2-5.8,8.2-4.6,13.5c0.3,1.3,1.7,2.7,1.7,4c0.1,0.8-0.6,1.3-0.6,2.1
      c0.3,3.3,0.7,6.3,3.5,8.6c-0.8-0.5-0.4,0,0.1,0.3c1.3,0.7,4,1.9,5.4,1.8c1.7-0.2,3.5-1.8,5.1-2.4c2.3-0.7,3.1-0.7,4.3-3
      c4.5-8.7,6.5-19.2,9.7-28.4c1.3-3.6,3-7.2,4-10.9c0.6-2.2,0.1-4.7,1-6.7c0.5-1.3,1.7-1.6,1.9-3.3c0.1-0.7-2-7.2,0.4-6.1
      c1.4,0.6-0.1,3.5,2.2,2.4C420.8,352.5,419.8,349.4,419.4,348.2C418.7,345.9,419.7,349,419.4,348.2z"/>
    <path class="st0" d="M409.3,338.6c0.2-0.4-0.1-0.9-0.3-1.2C408.4,337.8,408.5,338.7,409.3,338.6z"/>
    <path class="st0" d="M416.4,360.4c0.5-0.6,0.8-1.2,0.8-1.9C416.9,359,416.1,359.7,416.4,360.4
      C416.7,359.9,416.1,359.7,416.4,360.4z"/>
  </g>
  <g>
    <path class="st0" d="M139.8,205.1c-0.1-1.1-0.2-3.7-0.5-4.7c-0.1,0.2-0.2,0.3-0.4,0.5c-1-0.9-1.5-2.2-2.3-3.2
      c-0.9,1.4-5.9-1.2-6,2c-2.9-0.6-4-5.1-6.4-5.2c-0.9,0-2.6,1.6-2.6,1.6c-1.6-0.3-0.5-2.1-1.2-3.3c-1.4,0.6-0.4,1.4-2.2,0.5
      c0,1.1-1.8,2.7-1.6,2.9c-0.8,0.4-2.8-0.6-2.7-1.6c-1.2,0.5-3.1,1.4-3.6,2.8c-0.3,0.8-0.3,4.5,1.3,3.4c-0.2,0.8,0,1.5,0.7,2.1
      c-0.9,0.1-1,1-1.2,1.7c1.4,0.2,1.3,1.5,1.7,2.6c-3.4-1.6-3.2-0.2-1.7,2.2c-0.7-0.4-1.3,2.4-1.4,2.8c-0.4-0.3-1-0.5-1.4-0.1
      c2.4,2.4,0.2,4.3-0.8,6.3c1.1,1.1,2.7,1,4,1.9c2.5,1.8,2.4,4.2,1.8,7c-0.8,4-0.6,4.1,2.8,2.5c3.5-1.6,6.7-2.6,10.5-3.1
      c-0.7-0.3-1.3-0.3-2-0.1c0.8-0.8,6-0.5,7.3-0.6c-0.1-0.2-0.3-0.3-0.5-0.3c0.5,0,1.7,0.1,1.6-0.4c0.2,0.1,0.4,0.2,0.5,0.4
      c-0.3,0.5-0.8,0.1-1.3,0.2c0.3,0.2,0.5,0.4,0.8,0.4c1.5-0.1,1.9,0.6,3.2-0.9c0.2,0.8,0.9,2.1,1.7,1c-0.1,0.2-0.2,0.4-0.3,0.6
      c0.3-0.1,0.7-0.2,1.1-0.2c-0.2-0.6,0.1-1.4,0-2c-0.1-0.9-1-0.9-1-1.1c-0.6-1.7-1.5-4.5-1.4-6.3
      C136.7,212.7,140.4,209.7,139.8,205.1C139.7,204.3,139.9,206,139.8,205.1z M127.8,226.3c0,0,3.7-0.5,3-0.5
      C130,225.9,128.7,226.8,127.8,226.3C127.9,226.4,128.7,226.8,127.8,226.3z"/>
  </g>
  <path class="st0" d="M216.5,114.8c-0.8-2.1-1.9-3.8-4.1-4.6c-1.5-0.6-3.4,0-4.6-1.1c-1-0.9-0.8-3.2-1.3-4.4c-0.5-1.4-3-3.6-2.8-5.1
    c0.2-1.7,2.1-2.1,2.3-4.1c0.2-1.9-0.1-4.5-0.1-6.5c0-2.1,0.2-4.3,0-6.4c-0.2-2.4-1.9-4-2.3-6.1c-0.2-0.9,0.6-2.4,0.4-3.7
    c-0.2-2.1-0.9-5.2-1.7-7.2c-1.3-3.1-4.9-5.5-6.7-8.2c-3-4.3-0.3-5.3,1.7-8.8c0.7-1.3,2.1-10.7,0.2-11.1c0.7-0.8,2.3-1.4,2.2-2.7
    c-3.6,1.2-3.4-0.7-5.9-0.8c-1.1-0.1-1.5,1-2.6,1c-1.4,0-2.1-0.7-3.3-0.5c-1.7,0.3-3.4,1.8-5.6,1.6c-2.1-0.2-3.8-1.1-6.3-0.8
    c-1,0.1-2.2,0.2-3.2,0.4c-2.4,0.4-5.5,1-8.2,1.5c-1.8,0.3-3.9,0.6-5.5,1.6c-0.7,0.4-1.7,2.1-2.4,2.4c-1.4,0.7-3.4,0.1-4.9,1
    c-2.4,1.3-3.4,3.8-6.8,3.8c0.5,1.3,2.4,2.2,2.7,3.7c0.3,1.6-0.4,4.5-0.1,6.3c0.3,1.8,1.2,3,1.7,4.5c0.2,0.7,0.5,1,0.6,1.7
    c0.1,0.7-2,1.1-0.2,1.9c-1.7,0.4-3.5-0.4-5.1-0.4c-2.3-0.1-2.4,0.5-4.3,1.7c-0.7,0.4-2.7,0.9-3.2,1.3c-1.2,1.1-0.4,1-0.8,2.3
    c-0.2,0.6,1.1,0.9,0.6,1.8c-0.2,0.4-2,0.8-2.4,1c-1.2,0.6-2.7,1-3.7,1.7c-1.2,0.9-1.8,2.5-3,3.3c-1.1,0.7-2.4,0.4-3.6,0.9
    c-0.8,0.3-2,1.3-2.7,1.5c-2,0.5-3.5,0.2-5.4,1.5c-2.7,1.7-4.8,2.9-5.4,6c-0.5,3-0.8,5.5,1.1,7.5c2.8,2.8,7.1,4.8,10.4,7.2
    c3.7,2.6,7.3,5.3,10.8,8c7.2,5.5,14.2,11.3,21.4,16.7c1.5,1.1,3.9,2.2,5.1,3.7c0.7,0.8,0.6,2,1.2,2.7c1.3,1.6,3.5,2.5,5.2,3.4
    c1.1,0.5,4.4,1.6,5.1,2.4c2,2.6-2.6,4.9,2.5,4.7c3.3-0.1,9.3-1.3,12-3.1c3.5-2.3,6.3-6.2,9.7-8.9
    C198.1,128.4,217.4,117.1,216.5,114.8C215.9,113.4,216.6,115.2,216.5,114.8z"/>
  <path class="st0" d="M239.7,244.3c-0.4-1.7-0.3-3.7-1.3-5.1c-0.5-0.8-1.9-1.4-2.6-2.2c-1.5-1.7-1.5-3.2-2.2-4.8
    c-0.9-2.2-2.6-4.3-2.6-6.7c0-0.9,0.4-1.8,0.4-2.7c0-1.1-1.2-0.9-1-1.8c0.2-0.8,1.8-2.1,2.2-2.9c0.9-1.4,1.7-3.4,2.4-4.9
    c0.9-2,1-1.3,0.4-3.7c-0.3-1.3-0.9-2.6-1.7-3.6c-1.4-1.9-7.1-4.8-5.3-7.7c1.6-2.6,6.4,0.8,8.3-0.9c-4.8-2.6-2.7-9-3.8-13
    c-0.6-2.1-2.2-5.7-4.8-5.7c0.6,1.3,0,2.7,0.8,3.9c0.5,0.8,1.7,0.7,2.2,1.6c1.4,2.5-0.6,4.1-2.1,5.2c-1.7,1.3-1.7,0.1-2.9,2.3
    c-0.6,1.2-0.6,2.6-0.9,3.9c-0.6,2-1.7,4.7-3.6,5.7c1.8,0.3-1.3,5.7-2.3,4.5c0,0-1.3,4.2-1.4,4.5c-0.6,1.8-1.6,3.6-2.4,5.2
    c-0.4,0.9-1.3,3.6-2.5,3.5c0,0-3.3-4.2-3.3-4.4c-0.7,2.5-1.9,0.7-3.6,1.8c-1,0.6-3.9,4.1-4.6,5.3c-0.7,1.1-3.1,9-2,8.9
    c0-0.3-0.1-0.7-0.2-1c0.6,0,0.4,0.9,1,0.2c0,0,1.6,5.4,2.6,3.7c-0.1,0.3,0,0.6,0.3,0.8c0.5,0.1,0.4-0.9,0.3-1.1
    c0.6,0,1,0.6,1.3-0.2c0,0.4-0.8,3.4,0.5,3c-0.5,0.2,0.6,3.3,0.7,3.8c0.1,2.2-1.3,3.8,1.2,5c3.2,1.4,7.6-0.9,10.8-0.7
    c3.1,0.2,5.7,0.5,8.6,0.7c2.2,0.2,4.2,0.6,6.3,1c0.9,0.2,1.9-0.1,2.8,0.2c0.5,0.1,2.8,2,3.3,1.9
    C239.7,247.5,238.6,244.8,239.7,244.3C239.4,243.3,238.9,244.7,239.7,244.3z"/>
  <path class="st0" d="M306,390.4c-0.8-1.4,0.2-0.9-1.6-1.9c-1.4-0.8-2.8,0-4-1.3c-1.9-2,0.4-6.7-3.3-5.9c0.7-3.2-3.2-3.4-4.9-5.2
    c-1.7-1.8-3.3-5.8-4.4-8.1c-1.3-2.7-0.6-2.6-3.3-2.6c-2.5,0.1-4.6,2.4-6.4,3.8c-2.2-4.2-4.3-2.7-8.5-1.9c-3,0.6-4.1-0.1-5.1,2.2
    c-1.3,3.5-0.3,9.4-0.4,13.1c0,1.2,0.5,7-0.5,7.7c-2,1.5-3.4-1.3-4.5,1c-1.2,2.5-0.3,8.6-0.4,11.4c-0.1,3.6,0.1,3.8,2,6.6
    c0.7,1.1,1.5,2.7,1.7,4c0.3,2.1-1.5,4.7-0.5,6.7c1.5-1.2,3.5,0.2,5.1-0.3c0.6-0.2,0.4-0.8,0.9-1c2.3-1.3,3.6-3.1,5-5.3
    c0.8-1.2,0.1-2.7,2-3.1c1.8-0.4,2.4,1.2,3.7,1.9c2.2,1.2,6.4,1.8,8.5,0.3c1.4-1.1,1.1-3.1,2-4.4c0.9-1.4,1.1-0.8,2.6-1.7
    c2.8-1.7,2.2-3.9,3.9-6.1c1.2-1.6,4-3.8,5.5-5c1-0.8,1.9-0.9,2.8-1.5c1.1-0.7,2.4-2.2,3.8-2.3C307.3,390.7,306.3,391,306,390.4
    C305.7,390,306.3,391,306,390.4z"/>
  <g>
    <path class="st0" d="M371.8,255.7c0-4-0.6-8.5-0.1-12.4c0.5-3.7,2.9-6.4,4.8-9.6c-2.4,1.4-4.8-1.3-6.8-1.3c-2.1,0-5.3,2.8-5.7,4.8
      c-0.9-0.9-3.6-1.1-4.8-1.2c-2.6-0.3-3.1-0.3-5.2-1.9c-2.9-2.2-5.6-3.1-9-3.7c-2.1-0.4-6.2-1.2-8.5-0.1c-3.5,1.7-1.2,3.1-0.4,5
      c1.7,3.9,5.1,9.3,2.7,13.9c-1.1,2.2-4.4,4.9-4.5,7.5c-0.1,5.1,3.1,0.5,4.6,2.9c-0.7,0.1-1.5,0.2-2.2,0.3c0.2,0.3,0,0.6,0,1
      c-3.4-0.7-0.7,2.2-2.1,3.2c3.7,2.3,7.4,4.6,11.1,6.9c2.4,1.5,7,3.3,8.3,6c0.4,0.8-0.8,1.1-0.3,2c0.5,1,1.9,2,2.8,2.7
      c1.2,1,3,2.9,4.4,3.5c0.5,0.2,1.8,0.3,2,0.5c0.6-3.3,3.1-6.1,4.4-9.3c0.7-1.9,0.2-1.8,1.7-3.3c0.4-0.4,2-2.3,2.1-1.3
      c0.6-0.6,0-1.5-0.3-2.1c0.1,0.2,0.3,0.4,0.4,0.6c0.1-0.2,0.1-0.4,0.2-0.6c0.8,0.8,2.5-0.4,2.8-1.2c0.8-1.7-0.7-2.4-1.4-3.8
      C371.5,261.6,371.8,258.9,371.8,255.7C371.8,252.3,371.8,258.7,371.8,255.7z"/>
    <path class="st0" d="M334.8,264"/>
  </g>
  <g>
    <path class="st0" d="M86.8,211.8c-0.5-0.3-1.7-0.3-2,0.2c0.7,0.3,1.4,0.5,2.1,0.6C87,212.4,87,212.1,86.8,211.8
      C86.3,211.5,87.1,212,86.8,211.8z"/>
    <path class="st0" d="M98.1,206.7c-0.4,0.2-1.3,0.5-1.5,1c-0.2-1.8,1-2.8,0.5-4.8c-0.5-2-1.7-4.9-3.9-5.6c-2.1-0.6-5,0.7-6.2,1.9
      c-0.6,0.6-1.3,1.9-1.9,2.6c-0.7,0.9-1.4,0.6-2.1,1.3c0.4,0.4,0.9,0.8,1.4,1.1c-1.1,0.2-1.4,0.8-0.9,1.8c0.4-1.5,0.9,0.9,1.7-0.7
      c-0.1,0.4-1.4,1.5-0.9,1.8c-2.5-1.4,0,1.2,0.5,1.8c0.2,0.2,1.3,3.8,2.3,2c-0.5,1.1,1.1,0.9,1.6,0.9c-0.4,0.4-1.1,0.4-1.6,0.8
      c0.3,0.2,1.1,0.7,0,0.4c0.7,0.6,3.6,2.8,4.6,2.7c1.4-0.2,1.5-1,2.6-2.3c0.6-0.7,5.4-5.8,4.5-6.7C98.6,206.7,98.3,206.7,98.1,206.7
      C97.7,207,99.2,206.1,98.1,206.7z"/>
    <polygon class="st0" points="82.9,203.2 82.9,203.2 82.9,203.2     "/>
  </g>
  <path class="st0" d="M176.5,142.1c-1.1,0.1-3.9,1.5-4.9,0.7c-1.3-1-0.1-1-0.4-2.3c-0.5-2.3,0.3-1.8-1.8-3.2c-0.5-0.3-2-0.8-2.6-1
    c-1.4-0.5-2.4-1.2-3.6-1.9c-1.8-1.1-2.1-2.6-3.2-4c-2.1-2.8-6.4-5.1-9.2-7.3c-3.3-2.6-6.6-5.2-10-7.8c-3-2.3-6-5.1-9.2-7.1
    c-3.4-2-7-1.3-11-1.3c1.2,16.1,1.6,32.5,3.5,48.5c0.3,2.4,1.5,3.7,1.4,6c-0.1,3.1-1,2.7-3.8,2.8c-2.6,0-16.4,1.8-17.5-0.8
    c-0.6,3.7-6.5-0.8-8,3.2c-0.8-1.8-2.8-3.9-4.4-2.2c-1.9,1.9,0.8,3.4-2.7,4.2c0.5,1.2,1,3.2,1.2,4.6c0.2,1-0.5,1.8,0,2.9
    c0.3,0.7,1.5,1,1.4,0.9c1,1.4,1.3,2.1,1.4,4c0,0.8-0.5,3.6,0.1,4.1c1,0.7,1.5-1,2.6-1c0.5,0,0.8,1.3,0.9,1.3c0,0,1.1-0.4,1.1-0.4
    c0.2,0,1.8-0.6,2.2-0.6c1.3-0.1,0.9,0.9,2.5,0.3c0.6-0.2,2.2-2.5,1.8-2.5c2.4,0,2.1,3.9,2.8,5c2.2,3.6,1.4,0.4,0.3,4.3
    c2.8,0.1,0.7-0.8,2,1.7c0.3,0.6,2,2.5,1.6,3.1c0.7-0.1,2-1.4,2.8-1.7c-0.1,1,1.8,2,2.7,1.6c0-0.1,1.6-1.9,1.6-2.9
    c1.8,1,0.8,0.1,2.2-0.5c1,1.8-0.9,3,1.6,2.8c1.6-0.1,2.2-2.1,2.8-3.2c0.1-0.2,0.8-2.2,0.9-2.4c0.1-0.8,0.7-3.4-0.7-3.8
    c3.8,0.2,4.8-2.8,5.3-5.3c0.2-0.3,0.6-0.4,1-0.4c0.3-0.5,0.2-1-0.2-1.4c0.3-0.6,1.2-2,1.6-3c0,1,1.9,1.9,2.8,2
    c-0.2-0.8,0.5-0.7,1.1-0.7c-0.1-0.8,0.3-1.7-0.1-2.5c0.5,0.1,1.3,0.2,1.7,0.5c0.4-0.8,0.5-2.3,1.2-2.9c1.2-1,1.3-0.2,2.2-0.7
    c0,0,1.5-0.2,1.4-0.2c-0.1,0,2.1-1.6,2-1.6c3.5-2.6,5.8-4,10-2.4c0,0.4,7.5-2.3,8.3-2.4c2.7-0.3,6.7,0.5,9.1-0.5
    c1.9-0.8,3.4-5.4,3.8-7.4C177.2,152.5,176.2,147.1,176.5,142.1C175,142.3,176.3,144.9,176.5,142.1z"/>
  <path class="st0" d="M318.5,243.4c-3.4,0.6,1.6-8.4-2.5-7.5c0.5-1-2.6-3.6-3.4-4.4c-0.4-0.4-0.7-1.6-1.3-1.8
    c-1.2-0.3-0.9,0.6-1.7,0.7c-1,0.1-3.6,1.1-4.6,1c-2.4-0.2-2.9-1.3-4.3-2.7c-2.8-2.7-5.6-1.4-9.3-2.5c-0.4-0.1-1.8-0.8-2.2-0.7
    c-0.6,0.2-0.8,1-1,1c-0.6,0.2-1.1,1.1-1.9,1.3c-1.9,0.5-1.7-1-3.3-1c0.2,1.3-3.6,2.3-4.3,2.4c-0.6,0.1-1.2,0.2-1.8,0.2
    c-0.7,0-0.5-1.2-1.6-0.8c-2.1,0.8-0.8,3.7-3.5,4.1c-1.2,0.2-4-0.9-5.4-1.1c-1-0.1-2.7-0.4-3.6-0.9c-1.7-1-2.6-3.9-5.1-3.9
    c-1.9-0.1-4.5,2.5-5.1,4.3c-0.7,2,0,4.6-0.5,7c-0.5,2.7-2.3,4.9-2.7,7.7c-0.4,2.6-0.8,5.2-1.1,7.8c-0.3,2.3-0.1,5.9-1.1,7.9
    c-1,2-3.5,3.3-4.7,5.3c-0.9,1.5-2.6,3.7-3.1,5.3c-0.7,2.5,0.7,5.3-0.6,7.8c-0.8,1.6-2.7,2.6-4,3.8c-0.7,0.7-1.6,2.1-2.4,2.7
    c-0.6,0.4-2.2,0.4-2.5,0.8c0-0.6,0.1-3-0.1-3.2c-1-0.8-2.2,1.6-3.1,0.4c-0.8,0.8-1.3,1.9-2.1,2.8c0-0.9-1.2-1-1.4-1.8
    c-1,0.9-2.8,1.3-3.5,2.6c-0.2,0.5,0.3,1,0.2,1.4c-0.1,0.3-1.3,3.9-1.4,3.6c0.7,1.5,4,0,5.3,0c3.9-0.2,7.9,0.3,11.7,0.2
    c3.5-0.1,5.5-0.9,6.7,2.7c0.8,2.4,1.3,4.8,2.4,7.1c1.3,2.7,1.8,3.5,5,3.3c2.3-0.2,4.3-0.3,6.7-0.3c-0.2-0.9,0.3-1.7,0-2.6
    c1.2,0.3,1.1-2.8,0.9-3.4c2.2,0,3.9-0.6,5.8-0.6c-1.3,3.8,2.6,1.5,4.7,2.2c2.3,0.9,1.6,3.7,1.8,6.3c0.3,4.1-0.2,6,1.3,9.8
    c0.9,2.2,1.1,5.7,0.5,7.9c0.7,0,2-1,2.8-1.2c1.2-0.3,2.8-0.2,4.2-0.5c1.6-0.3,5.7-0.5,4,2.5c1.6,0.7,3.8-1,5.5-1.1
    c-1.4,2.8,2.1,3.7,4,4.1c0.9,0.2,2.4,0.7,3.2,0.4c1.1-0.4,1.3-2,2-2.2c0.8-0.2,2.5,3.7,3,4.1c1.3,0.9,3.1,0.8,4.4,2.3
    c1.1,1.3,1.6,4.3,3.3,4.7c0.3,0.1,2-1,2.4-1.1c0.4-0.2,0.1,1.1,0.5,1.2c0.8,0.1,0.6-7.3,0.6-7.7c-2.2,0.6-1.4,1.8-3.6,1.1
    c-2.4-0.7-3.8-4-3.6-6.1c0.2-2.1,3.4-11.2-0.1-12.3c0.6-1.7,4.2-2.6,2.8-4.9c3-0.6,6-0.9,9-1.5c-0.9-4.7-6.8-8.1-7.1-13
    c0-0.7,0.5-1.5,0.5-2c-0.1-1.7-0.9-2.9-1.1-4.6c0-0.3,0.6-5.5,0.7-5.5c-0.3,0.2-0.1,1.9-0.9,1.4c1-0.9,0.8-4.6,0.7-5.7
    c0-0.7,0.4-1.1,0.2-1.9c-0.2-1-1.5-1.7-1.6-2.6c-0.4-3.2,3-5.8,3.8-8.7c1.2-4,0.2-8.4,2.3-12.2C313.8,252,323.1,242.6,318.5,243.4
    C317.5,243.5,319.1,243.3,318.5,243.4z"/>
  <path class="st0" d="M425.1,194.1c0.2,0.7-0.5,0.8-1.1,0.6c1.3-1.1,0.7-4.7,0.6-6.2c-0.1-2-0.2-3.8-3.1-2.8
    c-0.7,0.3-1.4,1.7-2.2,2.2c-1,0.6-2.7,0.8-3.9,1.1c-2.8,0.7-5.7,1-8.5,1.5c-1.3,0.2-1.7-0.3-3.1,0.2c-0.9,0.3-1.5,1.4-2.5,1.8
    c-2.4,0.8-4.4-0.2-6.9,0.8c-2.3,0.9-3.8,2.5-6.4,1.2c-2.6-1.2-3-4.6-5.5-6c-1.5,3.9-3.4,4.4-0.9,8.4c1.5,2.4,2.5,4.3,4.9,5.8
    c6.1,3.9,14.7,6.8,21.8,6.8c-2.7,3.2-5.4,6.4-8.1,9.6c-2.1,2.4-4.3,6.6-7,8.3c-2.6,1.6-5.6,0-8.4,1.4c-1.2,0.6-1.8,1.7-2.9,2.4
    c-1.3,0.8-2.8,0.8-4.1,1.5c-6.2,3.4-6.3,11.5-6.3,17.5c0,3.4-0.4,7.2,0,10.6c0.3,2.5,3.2,4.9,3,7.2c0.9-1.2,2.3-4,2.6-4.4
    c1-1.4,2.3-2.9,3.4-4.3c3-3.9,6.4-7.9,10.3-10.9c7.7-6,13.9-11.5,19-20c3.7-6.1,6-12.9,9.1-19.2c1.3-2.7,3.5-5.7,4.2-8.6
    c0.3-1.1-0.3-3.7,0.3-4.7c0.6-0.8,2.4-0.2,2.6-1.1C425.8,194.5,425.5,194.4,425.1,194.1C425.3,194.9,425.5,194.4,425.1,194.1z"/>
  <g>
    <path class="st0" d="M66.6,188.4c0.2,0,0.4,0,0.6,0c0-0.1,0-0.3,0-0.4C66.9,188.1,66.8,188.3,66.6,188.4
      C66.8,188.4,66.8,188.3,66.6,188.4z"/>
    <path class="st0" d="M67.3,185.8c0.1,0.2,0.1,0.3,0.2,0.5C67.9,186,67.9,185.9,67.3,185.8z"/>
    <path class="st0" d="M67.9,191.2c0.2-0.1,0.4-0.3,0.6-0.4C68.1,190,67.1,190.5,67.9,191.2z"/>
    <path class="st0" d="M68.8,186c-0.3,0-0.5,0-0.8,0.1C68.1,186.8,69,186.7,68.8,186z"/>
    <line class="st0" x1="68.7" y1="188.2" x2="68.7" y2="188.2"/>
    <path class="st0" d="M68.5,188.7c0.4,0.2,0.7,0,0.8-0.5c-0.2,0-0.4,0-0.6-0.1C68.7,188.3,68.6,188.5,68.5,188.7
      C69,188.9,68.6,188.5,68.5,188.7z"/>
    <path class="st0" d="M70,190.3c0.3-0.2,0.5-0.5,0.6-0.9C70.2,189.6,70,189.9,70,190.3z"/>
    <path class="st0" d="M72,190c0.2,0.1,0.3,0.3,0.5,0.4C72.7,189.9,72.5,189.8,72,190z"/>
    <path class="st0" d="M79.7,184.1c0.4-0.4,0.9-0.6,1.4-0.8c0.2-0.7,0.2-1.4,0-2.1c-5.8,0-10.3,1.2-15.9,2.2
      c0.6,0.1,0.9,0.8,1.6,0.8c0.3-0.6,0.8-0.8,1.5-0.7c-3.6,2.4,1.4,1.7,2.2,1.8c-0.6,0.5-1.4,0.8-1.4,1.7c1.5-0.4,3.6-1.9,5.2-1.4
      c-0.4,0.4-0.2,1,0.3,1.2c-0.8,0.1-4.1-1.5-2.6,1.3c0.5-0.4,1.4-1.1,1.8-0.1c-1.6-1.3-1.7,1.7-1.8,1.8c1.2,0.6,1.4,0.8,1.7,2.1
      c1.3-0.5,0.6-1.9,1.4-2.7c0.9-0.9,2.1-1.1,3.2-1.6c1-0.4,2.8,0.5,2.8-1.4C81.1,185.2,79.5,184.8,79.7,184.1z"/>
  </g>
  <g>
    <path class="st0" d="M159.8,220.5c-0.2-0.9-2.5-1.5-3-2.5c-0.7-1.5-0.1-3.2,0-4.7c0.1-1.3,0-3,0-4.5c0.3-0.6,0.5-1.2,0.5-1.9
      c-0.6-0.7-1.1-1.4-1.7-2.1c1,0.2,1-2.5,0.9-2.9c-0.6-1.7,0-0.9-1.7-1.1c1-1.3,1.5-3.6,0.8-5.3c-0.3-0.8-1.4-1.2-1.8-2.1
      c-0.4-0.9,0.4-2.1-0.3-2.6c-0.5-0.4-3.1,0.5-3.7,0.6c-3.3,0.5-7.8,0.2-11.1-0.1c0.2,0.8-0.1,3.1,0,4.1c0.2,1.3,0.3,2.4,0.3,3.8
      c0.1,2.5,1.5,5.8,1.2,8.2c-0.3,2.7-2.6,5-3.2,7.8c-0.3,1.4-0.8,2.4-0.5,3.9c0.2,1.5,2.3,3.1,1.4,4.7c1.7-0.5,0.8,2.3,1.1,3
      c-0.3,0-0.6,0.1-1,0.1c0.5,0.9,4.3,2.2,5.3,2c0.8-0.2,2.8-1.8,3.7-2.1c1.2-0.5,2.4-0.7,3.6-1.3
      C152.1,224.7,160.2,222.2,159.8,220.5C159.7,220.2,159.9,220.9,159.8,220.5z M154.5,221c0.6,0.3,1.4,0.1,1.9,0.5
      C155.8,221.2,155,221.4,154.5,221z"/>
  </g>
  <g>
    <path class="st0" d="M321,263.8C320.3,263.8,321.5,263.9,321,263.8L321,263.8z"/>
    <path class="st0" d="M340.1,244.5c-0.4-1.5-1.4-2.8-2-4.2c-0.6-1.2-0.8-3.5-1.3-4.4c-0.3-0.5-1-0.7-1.3-1.2
      c-0.3-0.7-0.7-1.7-1.3-2.5c-2.3,2.8-2.2,1.8-5.1,2.2c-0.7,0.1-5.2,0.8-4.4,2.1c-0.7-0.3-1.1-1-1.8-1.2c-0.8-0.3-1.1,0.3-1.9,0.3
      c-2-0.1-2.4-0.9-3.4,1.3c-0.4,0.9-0.6,3.6-0.4,4.7c-0.3,0.5-0.3,1,0,1.5c0.1,0.5,0.4,0.7,1,0.3c0.3,0.6,1.3,0.5,1.5,1.3
      c0.7,2.4-5.9,6.5-6.9,8.6c-2,4-1.3,9-2.3,13.1c0.8-0.6,1.6-0.2,1.9-0.3c0.6-0.2,1.1-0.9,1.8-1.2c3-1.4,5.1-1.1,8.4-1.1
      c-0.2-1.1,0-4.2,0.7-5.2c0.5-0.6,2.3-0.7,2.3-1.4c-0.2,0.1,2.3-0.5,1.5-1.2c0.5,0.5,0.7,2.2,2.1,0.5c0-0.1,0-0.1,0-0.2
      c0.6,0,0.5-0.6,1-0.8c-0.1-0.1-0.1-0.3-0.2-0.4c0.3-0.1,0.6-0.2,0.9-0.3c0.3-0.4,0.1,2,0.2,1.4c-0.1,0.7,1.7-0.4,1.6-0.4
      c-0.4,1.9,1.8-0.1,1.8-0.2c1-0.7,1.6-3.1,2.3-4.2C338.5,249.4,340.9,247.6,340.1,244.5C340,243.9,340.4,245.4,340.1,244.5z"/>
  </g>
  <g>
    <path class="st0" d="M339.7,387.6c-0.2,0.5-0.5,1-0.3,1.6C339.6,388.7,339.7,388.1,339.7,387.6z"/>
    <path class="st0" d="M344.4,371.1c0.1,0.2,0.2,0.3,0.3,0.5C345.1,371.2,345,371.1,344.4,371.1z"/>
    <path class="st0" d="M369.3,345.6c0.1-0.8-0.7-1-0.8-0.1c-0.5-0.8,0.1-3.3-0.1-4.3c-0.3-1.9-0.3-4.1-0.3-5.7
      c0-3.3-1.6-9.6,0.6-12.5c-0.2-0.1-0.3-0.2-0.5-0.3c1.8-0.9-0.8-1.1-1.5-0.9c-1.4,0.4-2.7,2.2-4.1,2.7c-1,0.4-3.1,1.3-4.1,1.4
      c-1.7,0.2-3-0.2-4.5,0.6c-2,1-1.5,1.4-3.8,1.6c-0.2,0-1.1-0.4-1.4-0.4c-0.6,0-0.8,0.7-1.6,0.7c-1.6-0.1-2.2-1.2-3.4-1.4
      c-1.5-0.2-3.3,0.7-5,0.6c0.2,2.1-1,3.3-1.3,5.2c-0.1,1,0.2,3.4,0.3,4.4c0.4,2.7,1.7,3.6,3.3,6.1c1.9,2.8,2.2,4.7,1.8,8.1
      c-0.3,3.2-0.8,2.1-2.7,4c-0.3,0.3-0.9,1.5-1.1,1.9c-0.3,1.1,1.5,2.8,0.1,3.8c0.1,0-1.6-2.6-2.3-3.3c-3.2-3.9-1.2-4.6-0.7-9
      c0.1-0.7,0.1-3.2-0.8-3.8c-0.5-0.3-3.8-0.1-3.8,0.7c-2.7-3-2.3-3.5-6-2c-4.1,1.6-8.3,3-12.4,4.6c0,0.5,0.6,4.7,0.9,5
      c1.2,1.5,2,0.7,3.7,1.2c2.3,0.6,7.4,4.7,9.7,4.1c-0.7,3.9,0.5,8-0.7,11.7c-0.2,0.5-1,1.1-1.1,1.5c-0.2,1.1,0.7,0.9,0.7,1.7
      c0,0.4-1.2,3.5,0.4,2.8c-0.1,2.5-4.6,8-2.9,10.2c-0.9-0.6-5.7,5.2-6,6.1c-1.2,3.3,1.7,8.2,2.4,11.7c0.9,4.5-1,9,0.4,13.4
      c0.5,1.4,0.9,3.4,3.2,2.4c2-0.9,0.9-2.7,1.1-4.5c-0.6,1.4-1.7-1-2.4-1c1.2-0.2,2.3-2.7,3.3-3.4c1.7-1.4,4.2-2.1,6.3-2.9
      c2-0.8,8.7-3.6,6.7-6.9c0,0.7-0.8,0.1-0.7,0.7c-0.2-2,1.1-3.7,1.3-5.6c0.2-1.6-0.1-3.1,0.2-4.7c-0.2,1.1-0.3,0-0.3-0.5
      c-0.5,0.6-0.5,1.4-0.6,2.1c-0.6-0.4-1.2-7.1-1.1-7.6c-0.1,0.4-2.3-9.7-2.8-9.6c1-0.6,0.9,1.3,1.5,1.3c1.1,0.1,1.8-1.1,2.5-1.7
      c1.7-1.6,3.4-3.4,4.7-4.1c0.3-0.3,0.4-0.7,0.4-1.1c0.1,0.4,0.4,0.7,0.8,0.6c-0.4-2.2,4.5-3.2,2.5-5.4c0.9,0.7,7.5-3.9,8.6-4.4
      c2.7-1.1,5.8-2.4,7.7-4.9c0.1,0.1,0.2,0.2,0.2,0.3c0.3-0.7,4.6-7.6,3.8-7.4c0.2-0.5,0.8-1.3,1.2-1.2c-0.2-0.1-0.4-0.3-0.6-0.4
      C369.3,347.3,369.2,346.4,369.3,345.6C369.5,344.8,369.2,346.4,369.3,345.6z"/>
  </g>
  <g>
    <path class="st0" d="M68.1,139.4c0.4-0.4,0.4-1,0.5-1.6C68.2,138.2,67.8,138.8,68.1,139.4z"/>
    <path class="st0" d="M124.4,157.7c-1.3-16.9-2.5-33.9-3.8-50.8c3.1,0,6.1,0,9.2,0c-6.4-4.8-12.9-9.4-19.5-13.8
      c0,1.6,0.7,6.9-0.8,7.8c-2.1,1.3-10.1,0.1-12.6,0.1c-0.6,0-3.1-0.4-3.6-0.1c-1.1,0.7-0.3,0.8-0.8,1.8c-1.5,3.6,1.3,9.8-0.7,13.1
      c-1.1,1.9-4.2,1.5-5.4,3.8c-1.4,2.7,1.8,7.7-1.1,9.4c-3.8,2.2-21.5-4.1-20.3,3.5c0.2-0.7,0.4-1.5,0.6-2.2c1.1,0.8,0.8,2.6,2,3.4
      c0.1-0.3,0.2-0.7,0.3-1c1.4,4.2,0.5,4-0.2,7.9c0.1-0.4,0.4-0.7,0.8-0.8c0.1,0.6-0.6,1-1.1,0.9c0.1,1,1.3,1.9,1.7,2.9
      c0.6,1.8,0.6,4.3,0.5,6.1c-0.2,3.9-2.8,7.2-2.8,11.1c1.2-2.6,0.9-2.1,3-2.5c1.6-0.3,3.8-0.9,5.3-1.1c3.2-0.4,7.1,3,8.7,5.3
      c1,1.3,3.6,6.5,6,6.1c2.7-0.5,0.6-4.5,2.6-5.1c1.3-0.4,3.1,2.1,3.6,3c1.5-4,7.4,0.6,8-3.2c0.8,2.7,14.2,0.8,16.6,0.8
      c2.2,0,3.4,0.5,4.5-1.2C126.7,160.8,125,159.3,124.4,157.7C124,151.9,124.6,158.4,124.4,157.7z"/>
    <polygon class="st0" points="65.2,132.4 65.2,132.4 65.2,132.4     "/>
  </g>
  <g>
    <path class="st0" d="M281.1,326.6c0.2-0.9,0.2-2.5-0.3-3.3c-0.3,0.9-3.5,1.1-4.2,1.2c-0.6,0-1.8-0.2-2.5-0.1
      c-0.6,0.1-2.2,1.2-2.7,1.2c0.4-1.4,0.6-5.1,0.2-6.5c-0.4-1.3-1.5-2.2-1.9-3.4c-0.6-2.1,0.2-3.6,0.1-5.6c0-1.4,0.1-7.1-0.5-8
      c-1.7-2.7-7.2,2.4-6.2-2.6c-1.9,0-3.5,0.6-5.8,0.6c0.8,2.1-1.4,3.9-1,6c-1.7,0-3.3-0.5-4.9-0.3c-1.3,0.1-2.3,1.1-3.7,0.7
      c-2.1-0.5-3.3-3.5-4.1-5.3c-0.8-1.8-0.5-5.7-1.9-7.2c-1.6-1.8-6.4-0.8-8.6-0.8c-3.3,0-6.8-0.5-10.1,0.1c-3,0.5-4.2,1.3-3.2,4.2
      c0.9,2.5,2.3,5,3.3,7.6c1.7,4.3,1.4,3.9-0.5,7.4c0-0.4,0.2-0.8,0.6-1.1c-2.3,1.2,3.1,10.6,3.5,12.4c1.2,5.2-1.6,8.2-4.4,11.5
      c-2.5,3-3,6.8-3.9,10.6c-0.5,2.3-1.5,4.5-2,6.8c-0.7,2.8-0.8,6.3-0.7,9.3c1.1-0.2,2.7,0,3.7-0.2c0.9-0.2,2.1-1.1,2.9-1.2
      c2.6-0.3,3.4,1.6,5.8,2.3c5,1.3,12.2,0.2,17.4,0.1c2.4-0.1,4-0.2,6,0.7c0.9,0.4,1.6,1.4,2.8,1.8c1.3,0.4,2.9,0.2,4.3,0.3
      c6.7,0.8,12.1-0.1,18.7-1.4c-2.2-1.4-6.1-5.1-7.2-7.6c-1.3-3-0.4-8.1-0.3-11.3c0-1.5-0.9-7.4,0.2-8.6c1.8-1.9,8.1,0.3,10.6-0.7
      C279.8,334.8,280.8,328,281.1,326.6C281.2,325.7,280.9,327.5,281.1,326.6z"/>
    <path class="st0" d="M218.2,290c0.8,2.9,0.4,2.7,1.9-0.2c0.3-0.6-0.3-1.3,0-2c0.5-0.9,2-1.6,2.8-2.2c-2.6-2.2-3.3,0.4-5.7,2.3
      c0.2,0,0.3-0.1,0.5-0.1C217.1,288.4,218,289.4,218.2,290C218.4,290.7,218,289.4,218.2,290z"/>
  </g>
  <path class="st0" d="M355.1,147.3c-0.8,0.8-5.1-4.6-5.3-5.1c-0.5-1.4-1.9-11.9-1.3-12.1c0.4,0,0.6,0.2,0.6,0.6
    c-0.1-1.4-2.7-5.9-3.5-7c-1.4-2-5.1-3.2-5.6-5.5c-1.4,1.4-2.6,2.1-3.9,3.2c-1.3,1-2.3,2.6-3.7,3.6c-0.8,0.5-0.5,1.4-1.7,1.7
    c-1,0.2-2.2-1.2-3-1.4c-3-0.7-6.1,0.3-9.1-0.3c0.3-0.4,0.3-0.8,0.2-1.2c0.5,0.8-13.1,1.2-14.3,1.2c-6.6,0-13.1-0.1-19.7-0.1
    c0.1,4,0.3,8.1,0.3,12.1c-1.7,0-3.5,0-5.2,0c0.2,8.7,0.3,17.3,0.5,26c-0.9-0.3-3.9-0.6-4.7,0.2c-1.1,1-0.3,1.9-0.8,3.1
    c-0.7,2-4.2,3.8-1.9,6c-2,1.6-1.3,2-1.8,4c-0.2,0.7-1.9,3.6-1.8,4c0.5,2.3,4.7-0.1,3.3,4.8c1-0.5,0.5,2.1,0.8,2.9
    c0.2,0.6,1.4,0.9,1.7,1.5c0.4,0.8-0.2,2.1,0.1,3c0.7,1.9,2.8,3,3.5,5.1c0.8,2.5-1.1,4-0.7,6c0.2-0.1,0.4-0.1,0.6-0.2
    c0.1,0.5-0.2,1.1-0.3,1.6c2.1,0.4,2.4,0.4,3.7,1.4c0.2,0.2,1.5,1.5,1.9,1.8c1,0.8,2.6,0.8,3.4,2.1c0.4,0.6-0.1,1.6,0,1.9
    c1.3,2.1,3.7,2.5,5.1,4.6c0.8,1.3,1,2.4,1.9,3.8c0.8,1.2,2.1,1.3,2.9,2.2c1.3,1.4,1.6,3.4,2.7,5.1c0.8,1.2,1.3,2.4,2.7,3.1
    c2.3,1.1,2.1,0,4.2-0.4c-0.7,0.2,3.8-0.2,3-0.2c0.3-0.8,0.8-1,1.5-0.5c0.5,0.6,0.9,1.2,1.2,1.9c0.8,0.7,1.6,1.5,2.3,2.2
    c1,0.4,1.4,1,1.1,2c0.8-0.3,1.3,0,1.6,0.8c1.3-3.2,5.2-0.8,7.1-0.2c-0.8-1.9,7.5-1.9,8-2.3c1.6-1,1.9-3.2,3.8-4
    c2.1-1,5.8-0.2,8.1-0.4c-0.4-0.5-1.1-7.2-3.3-4.4c-2.4-2.3-2.5-6.4-4.6-9c-1.2-1.5-2.7-3.9-4.4-4.9c-2-1.1-3.3-0.1-3.1-2.4
    c0.2-2.1,1.2-1.7,2.6-2.3c2.9-1.2,2.9-0.1,2.7-4.3c-0.1-2.5,0.4-4.7,1-7.2c0.2-0.6-0.1-2.3,0.6-2.7c0.6-0.3,1.6-0.4,1.6,0.7
    c1.8-1.9,0.7-4.1,1.6-6.4c0.7-1.7,2-4.2,3.3-5.4c0.8-0.7,1.6-0.2,2.3-1.1c0.4-0.6,0.3-2.4,0.5-3.2c0.7-3.5,0.2-6.6,0.5-10.1
    c0.3-3,1.7-6.4,2.4-9.3c0.7-2.9,0.6-1.8,2.6-3.2c0.3-0.2,1.1-1.5,1.6-1.9c0.9-0.7,2-0.5,2.8-1.5
    C358.1,148.3,355.2,149.3,355.1,147.3C354.5,147.9,355.1,148.2,355.1,147.3z"/>
  <path class="st0" d="M237.7,134.7c-0.6-2.1-2.8-4.2-3.5-6.4c-1-3-1-6.3-1.6-9.4c-2.2,1.3-3,2.1-5.1,1.3c-2.5-0.9-4-3.1-7-3.8
    c-5.1-1.1-8.9,2.9-13,5.5c-4.7,3.1-9.7,6-13.9,9.7c-3.9,3.3-6.7,8.2-11.9,9.3c-1.5,0.3-3.7,0.1-4.8,1.4c-1.2,1.4-0.4,6-0.5,7.9
    c-0.1,4.2,0.2,9.8-2.8,13.1c-1.6,1.8-3.4,1.4-5.3,1.7c-2.2,0.3-5.2-0.4-7.3,0.4c-2.4,0.9-2.8,2.8-5.9,1.7c0.2,2.6,0,4.7,1.7,6.9
    c1,1.3,2.4,1.9,3.8,3c-0.5,0.2-1,0.2-1.4-0.1c-0.9,2,1.9,3.9,3.3,4.4c2,0.6,2-1.4,3.2,1.2c-1.4,0.6-0.3,3.2,0.7,3.1
    c0,0-0.1-1.8,0.5-2.1c1.5-0.8,2.1-0.4,3.3,0.4c3.6,2.4,1.8,4.3,3-0.7c0.8-3.2,2.6-7.5,5.8-8.5c3.5-1.2,7.1-0.5,9.9,2.1
    c1.5,1.5,0.9,2.1,2.8,1.9c1.6-0.2,2.6-1.7,4.4-1.4c4.1,0.5,5.4,4.3,9.5,1.8c4.3-2.6,6.5-1.9,11.4-1c3.8,0.7,5.2-3.2,8.7-3.2
    c-0.3-2-0.8-2.9-0.4-4.7c0.3-1.1,1.8-3.3,2.4-4.5c1.7-3.3,4.7-5.6,6.6-8.7c1.9-3,1.2-7.1,1.4-10.6c0.1-2.4,0.2-5,0.7-7.4
    C236.8,137.9,238,135.8,237.7,134.7C237.4,133.5,237.9,135.4,237.7,134.7z"/>
  <path class="st0" d="M330.5,323c3.3-1-0.7-7.3-2-8.3c-1.2-1-2.9-1.6-4.5-2.4c-1.3-0.6-3.5-2.6-4.9-2.6c0.3,1.6-3.4-0.4-3.3-0.2
    c-0.2,0.3,0.2-2.1,0.2-2.1c-2.9,0.7-5.9,0.9-8.9,1.6c1.4,2.2-2.2,3.2-2.8,4.9c3.8,1.2-0.1,10.5-0.1,12.7c0,2,1.7,4.8,3.6,5.5
    c2.4,0.8,1.5-0.1,3.8-1c0,1.4,0.7,6.6-0.3,7.7c-0.1,0.1-0.8-1.1-1.5-1.1c-2.8,0.1-1.4,1.5-3.4-0.9c-1.3-1.6-1.6-3-3.2-4.1
    c-1.6-1-2.5-0.9-3.7-2.1c-1.3-1.3-0.9-2.5-2.5-2.3c-0.2,0-0.8,1.5-1.4,1.6c-0.8,0.3-2.2-0.3-3-0.4c-1.9-0.4-6.1-1-4.6-4.1
    c-1.8,0.1-3.7,1.5-5.5,1.1c0.7-1.1-0.3-3.1-1.7-3.2c0.9,2.2-0.1,4.5-0.2,6.7c0,1.1-0.6,5,0.1,5.8c-2.8,0.9-5.4-0.2-8.1,0.2
    c-3,0.4-2.7,1.1-2.7,4.4c-0.1,4.8-1.5,12.6,0.8,16.9c0.9,1.7,3.5,4.7,5.2,5.8c2.1,1.2,3.5,0.3,5.8,0.2c3.6-0.2,5.8,2.5,8.9,3
    c5,0.9,5.8-1,8.8-4.9c1.6-2,4.1-2.1,5.6-3.7c1.4-1.5,0.9-3.3,2.9-4.6c1.3-0.9,5.2-0.3,6-1c1.1-1.1-1-2.2-0.5-3.4
    c0.6-1.6,4.7-2.3,6.1-2.8c3.1-1.1,6.3-2.2,9.3-3.6c-1.4-2.4-2.1-0.3-1.2-3.8c0.2-0.8,0.4-2.8,0.6-3.3c0.7-1.7,1.8-1.6,3-2.9
    C329.2,331.8,329.8,323.2,330.5,323C331.1,322.8,329.4,323.3,330.5,323z"/>
  <path class="st0" d="M403.1,209.3c-5.4-1.3-13.1-3.9-17.4-7.4c-1.5-1.2-1.9-2-2.9-3.6c-0.8-1.2-2.2-2.2-2.6-3.6
    c-0.4-1.4,0.7-2.2,0.8-3.6c-0.5,0.2-4.3,0.6-4.6,0.5c-1.5-0.5-1.2-1.1-1.4-2.4c-0.3-2.5,1.7-3.2,2.2-5.2c0.6-2.4-0.2-2.2-1.5-4
    c-1.9-2.6-4.2-5.4-6.7-7.5c-1.4-1.1-6.8-3.7-8.3-1.9c-0.1-0.6-0.5-1.1-1-1.4c-0.9,0.1-0.9,1.4-2.6,1.2c-0.7-0.1-3.1-2-3.4-2.5
    c-0.4,1.6-1,3.2-1.7,4.7c-1.5-2.2-4.2-2.1-5.7,0.2c-1.5,2.2-0.6,6.3-2.2,8.3c-0.6,0.1-1.1,0.2-1.7,0.2c-0.4,0.4-0.7,0.9-0.9,1.5
    c-0.6,0.7-1.8,2.6-2.2,3.5c-1,2.4,0.3,4.8-1.6,6.9c0-1.2-0.9-1-1.5-0.7c-1.1,0.5-0.6,2-0.8,2.8c-0.5,2.1-1,4.4-1,6.6
    c0,2,1,3.8-1.2,4.9c-2.1,1.1-2.4-1.1-3.8,1.4c-1.1,2.1-0.5,1.9,1.1,2.9c2.2,1.4,2.9,1.8,4.6,3.9c1.3,1.6,2.5,2.4,3.4,4.3
    c0.9,2,1,4.5,2.7,6.1c2.1-2.7,2.4,3.3,2.6,3.7c1.4,2.6,3.8,1.5,6.2,2.3c2.5,0.9,4,3.5,6.5,4.4c1.9,0.7,5.7-0.3,7.3,1.2
    c2.1-3.4,4.1-4.8,7.6-4.2c1.1,0.2,1.3,0.8,2.8,0.9c1.9,0,1.8-0.7,3.3-1.2c3.4-1,5.7-3.8,9.2-4.5c2.7-0.6,4.4,0.6,6.7-1.1
    c2.9-2.2,5.4-6.4,7.7-9.1c2.4-2.8,4.7-5.6,7.1-8.4C406.7,209.4,404.8,209.7,403.1,209.3C401.4,208.9,404.7,209.7,403.1,209.3z"/>
  <g>
    <path class="st0" d="M87.1,90.8L87.1,90.8C87.2,90.7,87.2,90.7,87.1,90.8z"/>
    <path class="st0" d="M87.2,90.8c-1.3,5.5-6.4,7-8.3,11.8c-1,2.4-1.1,5.1-2.7,7.2c-1.4,1.8-3.7,2.7-4.6,4.9c0.2-0.4,0.5-0.7,0.9-1
      c0.5,0.9-2.6,6.5-3.3,7.6c-1.6,2.6-6,7.4-4,11c-0.7-4.9,5.2-3.5,8.2-3.5c2.1,0,11,1.4,12.6,0c1.7-1.4,0.2-5.1,0.2-6.9
      c0.1-5,3.7-3,5.7-5.9c2.2-3.2-1.1-10.2,0.7-13.7c0.8-1.5-0.5-0.7,0.7-1.6c0.7-0.6,4.7,0,5.5,0c2,0,9.9,1.1,11.2-0.2
      c1.1-1.1,0.3-8.5,0.3-10.1C102.7,90.6,94.9,90.7,87.2,90.8C86.9,91.8,88.1,90.7,87.2,90.8z"/>
  </g>
  <path class="st0" d="M280,140c-7.2-4.1-14.4-8.2-21.7-12.3c-3.7-2.1-7.5-4.2-11.2-6.4c-1.8-1-6.5-4.8-8.6-4.9
    c-1.4,0-5.4,2.3-5.8,3.4c-0.4,1,0.9,7,1.3,8.1c0.7,1.9,2.2,3.7,2.8,5.4c1.1,3-0.3,5.3-0.6,8.8c-0.3,3.6,0.2,7.7-0.5,11.3
    c-0.7,3.8-3.2,5.8-5.6,8.7c-2.7,3.4-6,8.4-4.4,12.6c1.2,3.3,2.2,2.8,4.3,4.4c1,0.7,1.9,3.1,2.4,4.1c2.1,4.3-1.1,11.1,4.3,14.1
    c-3,0.9-10.2-1.9-8.1,3.3c1,2.4,4,3.6,5.4,5.6c0.7,1,2.7,4.8,1.8,5.9c1.3,0,3-0.1,4.1-0.7c0.5-0.3,1.1-1.2,1.6-1.4
    c0.2,0.8,0.9,1.3,1.4,2c1.3-3.2,6.5-1.9,8.7-2.9c0.9-0.4,2.6-1.6,2.9-2.6c0.8-2.7-0.3-0.6-0.5-2.5c-0.1-0.8,6.3-1.2,7.2-1.5
    c2.4-1,4.5-3.3,6.1-5.3c0.8-1,5.5-9.4,7.9-5.3c-0.2-0.9,0.5-1.8,0.2-2.7c-0.2-0.8-1.5-0.7-1.6-1.4c-0.2-0.8,0.3-3.4-0.9-2.9
    c0.2-0.4,0.1-3.5-0.2-3.9c-0.9-1.1-2.5,1.3-3.1-0.8c-0.4-1.2,1.5-1.6,1.8-2.4c0.4-1.4-0.1-2.5,0.1-4c0.5-0.7,1.1-1.3,1.8-1.8
    c-0.6-0.6-0.8-1.3-0.7-2.1c0.5-1.1,1.6-1.7,2.2-2.8c0.5-1.1,0.2-3,0.8-3.8c0.8-1.1,4.1-0.9,5.2-0.6
    C280.2,155.3,280.1,147.6,280,140C275.2,137.3,280,140.9,280,140z"/>
  <g>
    <path class="st0" d="M74,191.6c-0.2,0.3-0.3,1,0.3,1.1c-0.2-0.4-0.1-0.8,0.3-1.1C74.3,191.6,74.1,191.6,74,191.6z"/>
    <path class="st0" d="M109.7,206.8c0.3-0.8,2.6,0.2,3.2,0.4c-0.3-1-0.3-2.3-1.7-2.6c0.2-0.7,0.3-1.5,1.2-1.7
      c-0.7-0.6-0.9-1.3-0.7-2.1c-2.9,1.8-0.4-5.3-0.4-4.9c-0.1-0.6-1.4-2.1-1.7-2.7c-1.1-1.8,1-2.2-2.1-1.7c0.4-1.4,1.6-1.7,1.3-2.9
      c-0.1-0.5-1.7-1.8-2-2.4c-0.5-1-0.3-3-1.3-3.7c-1.7-1.2-1,0.4-1.4,0.6c-0.8,0.4-1.6,1.6-2.7,1.8c-0.4,0-1.9-0.8-2.5-0.8
      c-0.7,0-1,1.1-1.5,1.1c-0.4,0-1-1.2-1.2-1.1c-0.1,0-1.7,0.2-1.5,0.3c-0.9-0.3-2.7,0.9-1.3-1.7c-2.4-1.1-5.6,0.5-8.2-0.4
      c-1.4-0.5-2.1-2-4.1-0.6c1-0.7-1.5,3.2-1.4,2.2c-0.3,1.7,2.1,1.2,0.7,3.1c-0.5,0.8-3.3,0.4-4.2,1.1c-1.4,1-1.2,2.2-2.2,3.4
      c0.6,0,1.2,0,1.8-0.3c-0.7,0.2-0.6,1.4-0.5,2c0.3-0.4,0.6-0.7,0.7,0c0.2-0.4,0.4-0.8,0.7-1.1c-0.2,0.8-0.5,1.6-0.9,2.4
      c0.2,0,0.5-0.1,0.7-0.2c-0.7,1.6,1.9,1.5,2,2.8c0.1-0.3,0.4-0.6,0.7-0.7c0.1,0.2,1.2,3.1,1.7,1.3c-0.1,0.4-0.2,0.8-0.3,1.1
      c0.4,0.1,0.6-0.1,0.6-0.5c0.1,0.1,1.2,3,1.2,3.1c0.2,0,0.4,0,0.6-0.1c0,0.3,0,0.7,0,1c0.1-0.2,0.2-0.3,0.3-0.5
      c0.2,0.1,0.3,0.3,0.4,0.5c-0.4,0-0.8,0.4-0.7,0.9c0.6-0.5,1.5-0.7,2.2-1.3c0.7-0.6,1-1.5,1.6-2.1c1.5-1.6,4.2-3.6,6.9-2.4
      c2.1,0.9,2.5,3.4,3.2,5.2c0.2,0.7,0.6,0.9,0.6,1.7c0,1.1-0.8,2.4-0.7,3.4c0.7-1.6,4.9-1.8,6-0.9c1.3,1,0.9,5.1,0.4,6.4
      c0.9-0.3,1.9-0.1,2,1c2.1-0.8,2.4-4.3,4.8-2.2c0-0.3,0.8-3.1,1.4-2.8C110.7,208.6,109.3,207.8,109.7,206.8
      C110,205.9,109.3,207.8,109.7,206.8z"/>
    <polygon class="st0" points="74.1,191.5 74.1,191.5 74.1,191.5     "/>
  </g>
  <g>
    <path class="st0" d="M191.9,230.4c-0.2,0.2-0.3,0.5-0.3,0.9C192.2,231.2,192.4,230.8,191.9,230.4z"/>
    <path class="st0" d="M192.9,230.9c0.2-0.1,0.3-0.2,0.5-0.3c-0.3,0-0.7,0.1-1,0.3C192.6,230.9,192.7,230.9,192.9,230.9
      C193.1,230.8,192.7,230.9,192.9,230.9z"/>
    <path class="st0" d="M230.2,183.2c-3.6-1.3-1.4-10.1-7.2-7.2c-2.6,1.3-2.9,2.8-6,2.2c-3-0.6-5.7-2.1-8.9-0.7
      c-2.7,1.2-3,3.6-6.4,2.8c-2.1-0.5-3.8-2.6-5.8-2.9c-1.7-0.3-4,2.4-5.4,1.9c-1.2-0.4-1.1-1.9-1.9-2.6c-1.1-1-2.3-1.6-3.8-2.1
      c-6-1.7-10,2.5-11.7,8c-0.9,2.9-0.6,5.9,0.2,8.5c0.6,2.1,0,2.5-0.2,3.9c-0.5,2.9-2.7,5.4-4,8c-1.2,2.5-1.2,5-1.1,8.1
      c0.1,2.7-0.3,5.5-0.2,8.2c1.2-0.3,2.4,0,3.6-0.2c-0.3-1,1.4-1.3,2.2-1.3c-0.4,0.6-1.4,1.1-2.2,1c1.1,0.9,3.8,0,5.2,0.5
      c1.7,0.6,2.9,2,3.7,3.7c0.3-0.4,0.7-0.7,1.2-0.9c-1.6,1.6,0.1,2.1,0.3,1.1c0,0.2,0,0.4,0,0.7c0.4-0.2,0.7-0.2,1,0.2
      c-0.7,0-1.2,0.3-1.7,0.7c-0.1,1.1,2.2-0.3,2.3-0.3c-1.6,0.9-1,1.9-0.8,3c0.2,1,3.2,5.1,3.1,3.7c0.2,1.6,1,0.1,1-0.5
      c0.3,1.2,2.3,1.2,1.7-0.1c0.2,0.3,0.3,0.6,0.3,1c0.3-0.3,0.3-0.8,0.3-1.2c0,1.1,0.2-0.1,0.3-0.5c0,0,0,1.8,0.3,1.6
      c0.9-0.5-0.8-2.1,0-2.8c-0.2,0.6,0.3,2.3,0.9,2.6c0.2-0.6,0-1.3-0.3-1.9c0.5-0.3,1,1.7,1.2,1.1c0.1-0.5,0-0.9-0.4-1.3
      c0.8,0.5,1.9,1.3,2.6,0.1c-0.3,0.7,4.7,2.5,3.6-1.4c0.2,0.3,0.6,0.8,1,0.5c-0.1,0.6,0.1,0.9,0.6,1.1c2.1-0.8,2.1-6.8,3.3-8.4
      c0.8-1.2,2.5-3.1,3.7-4c1.6-1.2,3.4-0.3,4.1-2.5c0.1,0.6,3.2,4.4,3.4,4.4c1.9-0.1,2.9-4.7,3.4-5.9c1-2.2,1.5-4.8,2.6-6.8
      c0.2-0.3,4.9-4.7,2.5-5.1c3.7-1.9,2.7-7,4.9-10.1c1.2-1.7,3.2-1,4.4-2.5C231.7,187.7,231.6,183.7,230.2,183.2
      C229.8,183,231.4,183.6,230.2,183.2z"/>
  </g>
  <g>
    <path class="st0" d="M214.1,60.4c-0.2-0.9,0.7-2.1,0-2.8c-0.5-0.6-1.2,0-1.7-0.6c0.6-0.1,0-1.1-0.2-1.4c-0.8-1.3-0.5-0.1-1.5,0
      c0.7-0.1-2.5-1.5-2.1-1.1c-1.5-1.4-1.9-1.8-1.1-3.7c1.3-3.1,6.6-3.5,3.8-8.1c-0.8-1.3-2.4-1.2-2.3-3.2c0.1-1.7,2.5-2.1,2.8-3.6
      c0.3-1.8,0.1-1.3-1.2-1.2c0.3,0-3,1.5-2.6,1.1c1.1-0.9-1.5-2.8-1.9-2.9c0.3,0.4,0.2,0.7-0.3,0.7c-0.5-3.4-6.9,2.5-8.1,3.9
      c1.3,0.3,0.9,8.4,0.5,9.6c-1.2,3.7-5.3,4.1-3.2,8.5c1.3,2.6,3.5,4.9,5.2,7.2c2.7,3.7,3.5,7.7,4.2,12.5c4.7-2.1,2.5-5.6,4.3-8.8
      C210,63.9,214.7,63.6,214.1,60.4C213.9,59.6,214.2,61.1,214.1,60.4z"/>
    <path class="st0" d="M210.3,54.2c0.2,0.4,0.6-0.2,0.7,0.5C212.8,52.7,209.7,53,210.3,54.2C210.5,54.6,209.9,53.4,210.3,54.2z"/>
  </g>
  <path class="st0" d="M283.6,363.4c-0.6,0.3-3.1,0-3.8,0.1c-2.2,0.2-4.5,0.9-6.8,1.4c-3.4,0.7-7,1.5-10.4,1.3
    c-2-0.1-4.1-0.7-6.1-0.9c-1.2,0-2.3-0.1-3.5-0.4c-0.6-0.4-1.1-0.9-1.4-1.6c-3-1.2-6.5-0.6-9.9-0.6c-4.6,0-10.7,1-15-0.7
    c-2.4-0.9-1.9-1.7-4.9-1.3c-0.7,0.7-1.5,1-2.4,0.9c-0.6-0.2-1.2-0.4-1.8-0.4c-2.7,0.7-2.3,2.7-1.4,5.4c0.7,2.1,2.3,3.4,3.4,5.3
    c1.3,2,1.9,4.4,2.9,6.5c2.4,5.6,7.8,12.3,7.4,18.4c-0.3,4.3,0.9,7.4,1.7,11.5c0.6,2.8,0.4,6,1,8.8c0.6,2.7,1.2,5.4,2.6,7.9
    c0.7,1.2,2,3.6,3.4,4.3c2.2,1,1.1,0.5,2.9-0.6c1.3-0.8,0.2-2.2,2-1.1c1.5,0.9,0.1,1.6,1,2.6c1.8,1.9,7.5,2.5,9.8,1.8
    c-0.5-0.5,3.4-3.4,3.8-4.2c0.7-1.5,0.1-5.3,0.2-6.9c0.1-2.8,0.2-5.6,0.2-8.4c0.1-4.9,0.3-9.7,0.4-14.6c0-1.6-0.4-4.3,0.2-5.8
    c0.8-2-0.5-1.2,1.7-1.8c3.3-1,3,1.6,3.2-2.8c0.2-4.8,0.3-9.6,0.4-14.4c0.1-4.7-0.6-4.7,3.7-5.4c4.3-0.6,7.6-3.1,10,1.5
    c1.6-0.8,2.5-2.4,4.1-3.1c0.7-0.3,3.7-1.5,4.5-1.2C285.6,364.2,284.9,362.8,283.6,363.4C283.1,363.7,284.9,362.8,283.6,363.4z"/>
  <g>
    <path class="st0" d="M240,430.1L240,430.1L240,430.1z"/>
    <path class="st0" d="M321.4,419.8c-1.9-0.1-1.1,1.9-2.7,2.4c-2.1,0.6-3.3-2.3-4.5-3.4c-0.3-0.3,2.3-4.3,2.4-4.4
      c1.6-0.9,1.9-0.3,3.6,0.5c-0.3-2.6,0.6-5.4,0.6-8c-0.1-2.7-0.9-4.4-1.7-6.9c-0.6-1.8-0.1-5.1-1.4-6.6c-1.3-1.5-4-1-5.8-1.3
      c-4.2-0.7-7.4,0.1-10.9,2.9c-1.3,1.1-2.5,2.8-3.9,4c-2,1.8-1.9,2.8-3.2,5c-1.1,1.8-2.9,1.6-4.2,2.8c-1.2,1.1-0.8,3.1-1.9,4.5
      c-2.3,3-6.7,2.2-9.8,0.7c-1.6-0.8-2.4-2.7-4.4-0.9c-1.2,1-1.6,3.6-2.7,5c-0.9,1.1-2.3,2.5-3.5,3.1c-1.4,0.7-4.6-0.2-5.6,0.9
      c-0.8-2,0.8-4.3,0.6-6.4c-0.3-3-2.3-4.3-3.9-6.5c-0.1,6-0.1,12-0.3,18.1c-0.1,2.8-0.1,3-1.7,4.6c-0.4,0.4-2.8,1.5-2.1,2.3
      c-1.6,0.5-5.6,0.2-7.2-0.4c-2.5-0.9-1.7-2.2-3.1-3.6c-1.7-1.8-1.7-0.6-2.7,1.1c-1.1,1.9-1.3,0.9-0.4,3.4c1,2.8,2.1,5.8,3.2,8.6
      c1.2,3,3.4,5.7,4.3,8.8c0.2,0.8,0.8,3.1,0.3,4c0,0-2.4,2.2-2,1.2c-0.6,1.4-0.1,1.9,0.9,2.9c-1-1,0.9,2,0.9,2
      c0.3,1.1-0.4,4.5,0.7,5c-0.1-2,0.3-1.2,1.7-1.1c-2.1-0.2,1.8,1.7,1.4,1.3c1.4,1.1,2.3,2.5,4.7,2.3c1-0.1,2.3-1.7,3.5-2
      c1.4-0.4,2.9,0.2,4.2-0.1c0.5-0.1,6.2-2.7,6.2-2.6c0.3,0.7,7.2,0.7,7.7,0.7c1.3,0.1,1.5-0.1,2.7-0.2c0.8-0.1,3.7,0,4.4-0.3
      c-2.5-1.6,4.7-1.9,4.6-1.9c3.1-0.7,5.8-3.3,8.1-5.3c4.3-3.6,9.1-8,12.3-12.5c2.6-3.6,4.2-8.3,7.7-11.1c1.1-0.9,2.2-1.1,3.2-2.5
      c1.7-2.3,2.2-7.2,2.8-9.8C323.5,419.9,322.4,419.8,321.4,419.8C321.2,419.8,322.4,419.8,321.4,419.8z"/>
  </g>
  <path class="st0" d="M339.2,113c0.5,0.2,1,0.3,1.6,0.3c-1.6-2.5-3.8-4.3-5.3-7.1c-1.5-2.8-3.4-5.8-4.7-8.7c-0.8-2-1.5-6.4-3.3-7.8
    c1,0.7-0.3-1.2-0.5-1.4c-1-1.5-2.5-2.6-3.4-4.2c-1.1-2-3.4-5.5-1.5-7.5c1.4,6,5.2,9.8,9.4,13.7c-0.2-0.7,0.6-2.4,0.8-3.1
    c0.5-2.1,1.6-5,1.6-7c0.1-3.5-2.7-8.2-4-11.6c-3.4,3-6.8,1.1-10.2,0.3c1.3,0.6-0.5,1-0.5,1.5c-1.2-1.1-0.9-1.4-1.4-2.7
    c0.7,0,1.1,0.8,1.7,1.2c-1.2-0.8-4.5-2.3-6.2-1.7c1.6,0.1-2.8,1.7-2,1.3c0.4-0.5,1-0.8,1.6-1.1c-0.9,0-1.7,0.9-2.5,0.4
    c-0.1,0.6-0.6,1-1.1,1.3c0.3,0,0.4,0.1,0.6,0.2c-0.7,0.1-1-0.3-1.6-0.2c-1.3,0.2-2.2,2.3-3.7,2.5c-2.1,0.2-5.4-1.3-7.5-2
    c-1.9-0.6-13.6-2.9-13.6-2.9c-2,1.7-0.8,2.6-0.8,4.7c0,1.4-0.9,2.7-0.9,4c0.1,2.4,1.3,4.9,1.6,7.4c0.2,2.1,0.2,4.3,0.3,6.5
    c0.3,9.6,0.5,19.2,0.8,28.8c0,1.4-0.4,4.1,0.1,5.4c0.7,1.7-0.4,0.8,1.3,1.4c3.4,1.3,9.6,0,13.2,0c4.5,0,9-0.2,13.5,0
    c1,0,2.2,0.5,3.2,0.3c0.7-0.2,2.1-1.6,2.4-1.6c0.7,0,0.2,1.1,0.1,1.3c3.8,0.6,6.9,0.2,10.5,1.2c2.2,0.6,1.6,0.4,3.3-0.6
    c-0.1,0,2-2,2-2c0.2-0.3,1.6-2.1,1.8-2.2c0.5-0.4,1.5-0.9,1.8-1.2C341.1,117.1,338.2,117.1,339.2,113
    C339.7,113.3,338.9,114.3,339.2,113z"/>
  <g>
    <path class="st0" d="M361.9,294c0.1,0.8,0.7,2.8,1.8,2.4c0.3-0.1-0.8-3.7-1.1-4.1C362.5,292.9,361.8,293.4,361.9,294
      C362,294.5,361.8,293.4,361.9,294z"/>
    <path class="st0" d="M365.3,304.2c-0.3,0.7-1.2,0.8-1.1,1.7C364.7,305.4,365.6,305.1,365.3,304.2z"/>
    <path class="st0" d="M364.4,289.1c0.5,0.3,0.1,1.2,0.4,1.2c1.4,0,0.7-2.7-0.2-3C364.5,287.8,365.1,289,364.4,289.1
      C364.6,289.2,365.1,289,364.4,289.1z"/>
    <path class="st0" d="M365.7,319.3c-0.2-0.7-0.6-1.5-1.4-1.3c1.2-1-0.8-4.9-1-5.6c-0.3-1-0.6-1.4-0.7-2.5c-0.1-0.9,0.7-6-0.5-5
      c1-1.9,1.2-4.5,0.7-5.8c-0.7-1.7-2.8-2.7-2.9-5.1c-0.1-2.3,2.2-4.3,2.1-6.6c-0.1-2.9-3.2-4-5.3-5.8c-1-0.9-2.2-1.6-2.8-2.9
      c-0.4-0.9,0.4-1.6-0.3-2.9c-0.9-1.6-5.4-3.4-6.8-4.4c-3.2-2-6.3-4.3-9.6-6c0.2,0.1-1.9-1.5-2.2-1.4c-0.7,0.1-0.9,1.7-0.9,1.8
      c0.3-0.1-1,1.2,0.1,1.1c-0.6-0.1-2.4-0.5-1.2,0.8c-0.5,0.7-1.5,1.3-2.3,1.7c0.4,0,1.3-0.2,1.5,0.4c-0.8,0.1-1.3,0-1.9,0.6
      c-0.2,0.2,3.4,0.3,3.3,0.2c0.2,0.2-2.1,2-2.2,2.5c-3.9-2.4-2.5,1.9-2.2,1.8c-0.6-0.1-1,0.1-1.1,0.6c-0.1-0.2-0.3-0.4-0.4-0.5
      c1.1,0.5,0.3-2,0.2-2.2c-0.4-0.8-0.8-0.1-1.5-0.3c-0.9-0.3-0.7-1.3-1.6-0.7c-0.4,0.2-1.1,2.1-1,2.5c-0.4-0.7-0.9-0.3-1,0.3
      c-0.1-2.5-0.8-4-0.4-6.6c0.4-2.3,1.3-3.1-0.7-4.3c-0.6-0.4-5.1-0.6-5.8,0.3c-0.9,1.2,0.7,2.7,1,3.7c0.9,2.4,0.5,2.6-0.3,4.5
      c0.1-0.2-2.2,1.6-0.8,1.5c-0.9,1.4,0.3,2.4,1.7,2c-0.1,0.1-1.1,2.3-1.2,2.5c-0.3,0.7-0.8,0.7-1.1,1.2c-0.3,0.5-0.2,1.6-0.7,2.5
      c-0.7,1.1-2.2,2.4-3.6,2.6c0.6,2,0.7,4.2,0.9,6.3c0.1,1,0.3,2.1,0.3,2.9c0,0.8-0.9,1.3-0.3,2.4c0.7,1.3,2.6,1,3.5,2.9
      c1,2.2,1.1,4.9,2.1,7.3c1.3,3,2.4,3.8,5,5.2c1.3,0.7,2.8,1.5,4.1,2.1c1.6,0.7,5.8,1.5,6.9,2.7c-0.5-1.3,0.9-0.9,1.3-0.9
      c0.8,0.2,1.8,2.8,1.9,3.2c0.8,2.5-0.5,6.5,1.9,8.4c1.8,1.5,3.2-0.4,5.2-0.1c0.8,0.1,1.1,1.2,1.9,1.4c1.2,0.1,2-0.4,3-0.4
      c0.2,0,1.8,0.5,1.9,0.5c1.5-0.3,2-1,3.3-1.4c0.3-0.3,0.5-0.6,0.8-1c0.8-0.4,1.5-0.3,2.2,0.4c1.1-0.2,1.8-0.6,2.8-0.9
      c2.2-0.6,5.6-1.4,7.1-3.5C368.7,319.3,365.7,320,365.7,319.3C365.5,318.6,365.6,318.3,365.7,319.3z"/>
    <path class="st0" d="M311.7,290.3"/>
  </g>
  <g>
    <path class="st0" d="M200.2,235c-0.9,0.2-3.3,3.3-1,3.2C200.7,238.2,201,234.8,200.2,235C199.4,235.2,201.5,234.7,200.2,235z"/>
    <path class="st0" d="M213.7,244.6c-1.9,0-6.7,1-7.9-1.2c-0.3,0.7-1.1,4.9-0.6,4.7c-0.2,0.1-0.4,0.1-0.6,0.1
      c-1.5,2.5-1.3,3.1,1.2,3.5c2.4,0.4,5.5-0.1,7.9-0.1C213.7,249.2,213.7,246.9,213.7,244.6C212.3,244.6,213.7,246.9,213.7,244.6z"/>
  </g>
  <path class="st0" d="M306.3,434.6c-1.1-3.9-4.5-4.7-7.5-2.8c-1.5,1-2.4,1.9-3.4,3.5c-1.4,2.2-1.3-0.1-1.1,2.4
    c0.1,1.1,1.4,3.3,2.3,3.9c1.9,1.4,1.5,0.6,3.1-0.3c0.4-0.2,0.8-1.4,1.3-1.7c0.8-0.7,2.1-0.3,3-1.1
    C304.5,438.2,306.5,435.2,306.3,434.6C305.9,433.4,306.5,435.1,306.3,434.6z"/>
  <path class="st0" d="M317.6,275.6c-1.5,0.4-2.3-0.5-1.7-2c-1,0,0.5-1.4,0.8-1.6c-1.2-0.4-2.9,0.3-3.8-0.5c-0.4,5.1-4,0.5-4.9,3
    c-0.1,0.3,1.2,3.3,1.3,3.9c0.2,1.2,0.3,5.3,1.7,5.8C314.3,285.6,316.6,277.3,317.6,275.6C316.1,276.1,317.3,276.2,317.6,275.6z"/>
  <path class="st0" d="M381.9,181c-1.3,0.7-1.1,1.2-2.1,1.9c-0.7,0.5-1-0.5-2.2,0.3c-1.7,1.3-4.2,7.3-1.7,8.4c0.5,0.2,5.3-0.7,5.6-1
    c3.5-3.4-2.1-1.9-2.6-2.6c0.5-0.1,3.8-2.3,4-2.6C384.1,183.6,382.7,182.8,381.9,181C381.4,181.2,382.3,182,381.9,181z"/>
  <path class="st0" d="M249.7,236.3c-3.4,0.6-6.4-1.9-8.5,2c-0.6,1.1-0.7,3.9-1.2,5.2c-0.3,1-0.6,3.5-1,4.2c-2.7-2.7-7.4-3-11-3.2
    c-5.9-0.4-2.8,1.7-4.3,5.8c2.3-0.4,3.9-2.2,5.8,0c1.9,2.3-0.2,2.6-1,4.1c-1.6,3-0.7,4.1,1,6c1.6,1.9,1.5,4.7,0.9,7.3
    c-0.1,0.5-0.8,3.8-1.2,4.2c-1.8,1.8-1.5-0.1-2.3-1.6c-0.9,3.2-2.5,0.7-4.1,1.7c0.5-0.9-0.5-2.8-1.5-3c-2.1-0.5-0.5,1.1-1.2,1.8
    c-1.5,1.5-2.3,1.5-4.9,0.9c0.4,1,0.3,2-0.2,3c0.8-0.2,2.4,4,1.9,4.8c-0.7,1.2-2.9-1.7-4.1,1.9c1.5,1.4,2.3,3,3.6,4.5
    c1.7,2.1,0.2,1.7,2.8,0.3c1.6-0.9,1.7-1.8,3.2-1.4c0.6,0.1,2.5,1.6,2.5,2.4c0.9-0.9,1.3-1.9,2.1-2.8c0.8,1,3.1-1.5,3.4-0.3
    c0.1,0.5-0.1,2.4-0.1,3.1c0.2-0.3,2-0.4,2.3-0.5c0.9-0.5,1.8-2.2,2.6-2.9c1.8-1.8,3.9-2.8,4.6-5.5c0.6-2.5-0.5-5.3,0.6-7.6
    c1.1-2.2,3.1-4.9,4.9-6.7c3.7-3.9,3.4-9.3,4.3-14.6c0.6-3.2,0.8-5.6,2.1-8.7C252.5,238.2,253.7,235.7,249.7,236.3
    C248.8,236.5,250.4,236.2,249.7,236.3z"/>
  <path class="st0" d="M316.8,267.2c-0.5-0.9-1.4-2-1-3.1c-1.1-0.4-2,1.9-2.7,2.3c-0.4,0.2-1.7-0.6-2.9,0.4c-1.4,1.1-3.7,6-2.2,7.4
    c0.1-1.2,4.4,1.6,5-2.6c0.7,0.6,4,0.5,4.5,0.1C318.5,270.7,317.5,268.3,316.8,267.2C316.3,266.3,317.4,268.2,316.8,267.2z"/>
  <g >
    <path id="senegal" class="st0" d="M93.4,180.4c0.7-2.8-2-3-2.5-4c-1-1.8-0.1-1.5-0.4-3.4c-0.2-1.4-0.8-3.7-1.5-4.7c-0.7-1.1-2.1-2-3-3
      c-1.1-1.1-1.3-2.7-2.1-3.7c-1.2-1.3-4.7-4-6.6-4.5c-2.1-0.4-5.1,0.6-7.1,1.1c-2.7,0.6-2.3,1.1-3.5,4.3c-0.5,1.3-1,2.8-2,3.9
      c-0.5,0.5-3.1,1.9-3,2.7c1.9-1.8,3.6,3.8,3.6,5c0-0.7,1.6-2.1,2.3-1.8c-0.6,0.1-2.2,1.4-2,2.1c0.6-0.1,1.1-0.6,1.4-1.1
      c-0.2,0.4-0.2,0.8-0.1,1.3c-0.4-0.2-0.7,0-0.8,0.4c0.4,0,1,0.3,0.7,0.8c2.1,0,3.9-0.2,5.6-0.6c0.8-0.2,1.8-0.8,2.7-0.6
      c0.7,0.1,3.3,1.5,3.9,1.8c0.7,0.3,2.2-0.8,1.7,1c-0.6,1.9-4.4-0.4-5.1-0.5c-1.7-0.3-1.1,0-2.4,0.2c-0.2,0-4,0.3-2.7,1.3
      c-2.8-2.2-5.9,1.3-5.3,3.6c0.6-0.1,0.6-0.9,0.9-1.4c-0.4,0.5,2.6,2.4,3,0.4c0.3,0.5,0.7,0.8,1.3,0.9c-0.6,0.1-7.4,0-4.7,1.4
      c1.9,1.1,9.1-2,11.4-2c2.9,0,5.6,0.1,7.8,0.9c1.2,0.4,2.5,1,3.8,1.2c1.5,0.2,3.4-1.1,5-0.4C93.8,182,93.2,181.2,93.4,180.4
      C93.6,179.5,93.2,181.2,93.4,180.4z M70.9,181.9c-0.1,0-0.1,0-0.2-0.1c1.1-0.1,0.5-1.5,1.5-1.6C71.7,180.4,71.5,182.1,70.9,181.9
      C70.9,181.9,71.5,182.1,70.9,181.9z"/>
  </g>
  <path class="st0" d="M162.2,217.9c-1.1-2.2,0.2-7.7,0.1-10.6c-0.1-2.6-0.5-6.6-1.5-9c-1.5-3.3-3.7-3-2.2-7.2
    c-1.8,0.8-4-0.2-5.7-0.7c1.2,1.2,0.4,1.7,1,3.5c0.2,0.7,1.4,1.1,1.6,1.8c0.4,1.4-0.2,2.7,0,4.1c-0.7-0.1-0.5,0.5-0.8,0.9
    c1.5,0.2,1-0.8,1.7,0.9c0.2,0.5-0.2,3.1-0.9,3.2c0.5,1.3,1.3,1.7,1.5,3c0.2,1.4-0.5,3.5-0.5,4.9c0,1.1-0.3,3.4,0,4.4
    c0.4,1.4,3.3,2.5,3.4,3.6c1-0.5,2.1-0.9,3.2-1.1C162.9,219.1,162.5,218.5,162.2,217.9C161.8,217.2,162.5,218.5,162.2,217.9z"/>
  <g>
    <path class="st0" d="M201.1,261.4c0,0.4,0,0.5,0.2,0.9C201.5,262,201.4,261.7,201.1,261.4z"/>
    <path class="st0" d="M230.3,264.1c-0.3-1.6,0.8-1.8-0.1-3.4c-0.2-0.3-1.2-0.4-1.5-0.8c-1-1.2-2-2-1-4c0.9-2,2.7-1.7,2.3-4.2
      c-0.5-4-4.1-1.8-6.4-1.4c0.3-0.8,0.6-4.7,0.4-5.3c-0.7-1.8-2.6-1-5-1.1c-2.2-0.1-4.3-1.1-5.4,1c-0.7,1.3,0,5.1,0,6.7
      c-2.2,0-5.4-0.7-7.6,0.1c-0.3,0.1-1-0.4-1.3-0.2c-0.9,0.7,0.1,2.3-0.3,3.2c-0.2-0.6-0.7-0.8-1.3-0.6c-1.2,1,3,2.5,3.4,2.5
      c-0.5,0-1.2,0.2-1.1,0.9c-0.2-0.4-1.4-1.2-1.6-0.3c-0.2-0.4-0.6-0.7-0.6-1.2c-1.1,0.9,0,2.3-0.3,3.4c-0.4,1.3-1.6,2.3-1.7,3.6
      c0-0.3-0.6-1.6-0.8-0.5c-0.2-0.4-0.3-0.7-0.5-1.1c-0.6,1.2,2.4,5.6,2.9,4c0,0.5-0.1,1-0.2,1.4c0.3,0.3,0.6,0.2,0.8-0.3
      c0.2,0.3,0.4,0.6,0.7,0.8c-0.5,0-1.1,0.1-1.6,0.3c0.2-0.8-0.8-1.6-1.3-2c1,1.7,1.9,2.7,2.9,4.3c-0.6-0.1-0.8-0.8-1.5-0.9
      c1,1.3,2.1,4.3,4.3,4.1c-0.7,0.9-1.1-0.9-1.9-0.4c2.6,2.6,4.6,6.5,7.4,8.7c1.4-3.9,3.7-0.2,4.2-2.3c0.2-0.9-1.1-4.7-2-4.4
      c0.6-0.9,0.5-2,0.2-3c3.1,0.7,3,0.5,4.8-1.1c0.8-0.7-0.8-1.8,0.8-1.7c1,0,2.1,2.2,1.9,3.1c1.8-1,3.1,1.8,4.1-1.7
      c1.7,3.1,1.4,3.1,2.6-0.2C230.1,267.8,230.7,266.8,230.3,264.1C230.1,263,230.4,265,230.3,264.1z"/>
  </g>
  <path class="st0" d="M342.3,344.7c-1.5-1.7-2.3-4.4-4.4-5.4c0.3,0.6,2.1,5.4,1.8,5.3c-0.7-0.4-1.4-1.8-1.8-2.4
    c0.1,2.2-1,0.9-1.6,0.2c0.2-0.8,0.3-1.5,0.2-2.3c-0.5-0.4-0.9-0.9-1.2-1.5c-0.3-1.5,0.2-2.8-0.2-4.4c-0.7-2.3-1.1-2.2-0.8-4.6
    c0.2-2,0.9-3.3,0.9-5.6c0-2.1-0.3-3.2-0.8-5c-1.2-4.2-3-2.6-5.9-4.8c-0.1-0.1,1,1.9,0.9,1.7c0.2,0.3,0.9,0.5,1.2,0.9
    c0.9,1.6,1.2,4.1,0.8,5.6c-0.1,0.5-1.1,0.9-1.3,1.5c-0.2,0.5,0.2,2.2,0.2,2.9c0,1.5-1.2,4.9,1,5.5c-1.3,1.4-2.3,1-3,2.9
    c-0.3,0.7-1,3.5-1,4.2c-0.3,2.7,2.5,3.9,4.6,6.2c0-1,3.8-0.8,4.2-0.4c1.1,1,0.3,4.1,0,5.2c-0.9,3.3-1.4,4.1,0.9,7
    c-0.2-0.2,2.8,3.8,1.7,3.5c1.9,0.5,0.5-3.3,1.3-4.8c1-1.7,2.5-1.4,3.1-3.5C343.4,351,343.4,346,342.3,344.7
    C340.9,343,343.9,346.5,342.3,344.7z"/>
  <g>
    <path class="st0" d="M142.3,45.4c-0.1-0.1-0.1-0.1-0.2-0.2C142.1,45.2,142.2,45.3,142.3,45.4z"/>
    <path class="st0" d="M150.2,61c-3-2.4-2.5-6.5-2.7-10.1c-0.1-1.3,0.3-2.2-0.6-3.6c-1.2-1.7-3.4-0.9-4.5-2c0.1,0.1,0.1,0.2,0.1,0.3
      c-0.4,0.4-0.8-1.6-0.8-1.7c-1.6,3.1-8.9,1.2-10.9-0.5c-1.6-1.4-0.2-2.4-2.4-2c-1.5,0.2-1.2,0.7-2,1.7c-2.9,3.9-2.4,8.3-7.2,11.1
      c-3.3,1.9-7.1,2.7-9.3,6c-1,1.4-1,2.9-1.7,4.5c-0.5,1.1-1.5,1.9-2,3.1c-1.3,3.4,0.5,5.2,0.2,8.1c-0.4,3.4-5.8,7.5-8.1,9.4
      c-3.4,2.8-8,2.5-10.8,5.5c5.4,0,10.9,0.2,16.3,0.2c3.5,0,6.4,1.1,7.1-2.4c0.4-2.1-0.2-3.1,1.2-4.8c1-1.2,3.1-2.3,4.5-3.2
      c1.2-0.8,2.6-1,3.8-1.5c0.9-0.4,2.3-0.9,3.3-1.3c1.3-0.5,2.7,0,4-0.8c1.5-0.9,2.1-2.5,3.4-3.6c1.3-1,3.2-1.2,4.5-2.2
      c0.7,0,1.4-0.3,1.9-0.7c-0.1-0.4-0.3-0.8-0.6-1.1c0.2-0.9-0.8-1.6-0.2-2.5c0.2-0.2,3.7-1.7,4.2-1.9c3.2-1.7,5.7,0,9.1-0.9
      C148,63.3,151.3,61.9,150.2,61z"/>
  </g>
  <path class="st0" d="M113.9,223.2c-0.3-1-2.3-3-3-3.6c-0.5-0.3-3.3-0.4-3.1-1.4c0.1-0.6,1.5-1.6,1.6-2.5c0.1-0.7-0.1-2.9-0.7-3.5
    c-2-1.9-1.4,1.1-3.6,2c-0.1-1.1-1.1-1.3-2-1c0.3-1,0.9-5,0-6c-1.3-1.5-3.5-0.4-4.2-0.6c-1.1,1-1.4,3.2-2.2,4.4
    c-0.6,0.8-3.4,4.5-4.3,4.9c2.7,2.6,5.4,4.1,8.2,6.8c2.8,2.7,8.2,9.5,12.8,8.6C112,228.5,114.8,226,113.9,223.2
    C113.5,222.2,114.8,226,113.9,223.2z"/>
  <path class="st0" d="M298.5,224.8c0.1-2.4-3.6-3.5-4.7-5.4c-0.4-0.8-0.1-1.4-0.7-2.3c-0.9-1.5-2.4-2.1-3.7-3.2
    c-2.2-1.9-1.5-4.1-4.6-5.7c-0.5-0.3-1.6,0.1-2-0.3c-0.5-0.4-0.3-1.4-0.6-1.6c-1.4-1.1-1.8-1-3.8-1.3c0.2-0.5,0.5-1,0.3-1.6
    c-0.2,0.1-0.4,0.1-0.6,0.2c-0.1-0.8,1.1-2.1,1.2-2.9c0.2-1.2-0.2-2.7-0.7-3.8c-0.6-1.4-2.9-4.8-4.4-5.3c-2-0.7-4.6,1.5-5.7,2.9
    c-1.3,1.7-2.5,4.3-4.4,6.1c-2.4,2.4-4.4,2.2-7.5,2.8c-1,0.2-2.2-0.2-2.8,0.8c-0.3,0.5,0.9,0.9,0.9,1c-0.5,1.2-0.9,3.3-2.8,4.2
    c-2.6,1.3-7.3-0.6-9.1,2.9c-0.5-0.7-1.1-1.2-1.4-2c-1.1,0.4-2.2,1.5-3.5,2c-1.1,0.4-1.7,0-2.8,0.8c-1,0.8-1.6,3.3-2.2,4.4
    c-0.8,1.5-2,2.5-2.9,3.9c0.2,0.8,0.9,1.4,1.2,2.5c0.1,0.7-0.1,2,0,2.7c0.2,2.5,1.8,4.3,2.7,6.6c0.5,1.1,0.5,2.7,1.9,4.2
    c0.6,0.7,1.9,1.2,2.4,1.9c1.1,1.5,1,3.4,1.4,5.2c0.6-1.8,1-3.9,1.6-5.6c0.8-2.2,0.6-1.7,2.6-2.4c1.3-0.5,7.7-1.1,8.6,0.4
    c-0.1-3.3-0.4-4.6,1.5-7.1c2.9-3.7,4.3-3,7.7-0.3c1.9,1.5,1.1,1.2,3.5,1.8c1.3,0.3,2.6,0.7,4,0.9c1.7,0.3,2.5,1.2,4.2,0.1
    c1.4-0.9,0.6-2.7,2.6-3.4c0.4,0.4,0.9,0.8,1.4,1.2c0.7,0.1,1.3-0.1,1.9-0.6c1.2-0.2,2.4-1.3,3.5-1.6c1.5-0.3,3.2,0.2,5.4-0.7
    c0.4-0.2,0.3-1.2,1.2-1.4c0.3-0.1,3.3,0.9,3.8,1c1.8,0.3,5.1-0.5,6.3,0.9C299.2,226.5,298.4,225.8,298.5,224.8
    C298.5,223.6,298.4,225.8,298.5,224.8z"/>
  <g>
    <path class="st0" d="M286.8,365.2"/>
    <path class="st0" d="M327.5,363.9c-0.5-1.6-0.2-3.9,0-5.4c-1.5,0.4-6.1-2.7-7.6-3.3c-2.3-1-5.8-0.2-5.8-3.2
      c-2.3,0.6-4.3-0.5-6.4,1.1c-1.2,0.9-1.2,1.8-2,2.9c-1.6,2.3-4.1,3.1-6.2,5.3c-1.2,1.3-2,3.9-3.5,4.7c-1.7,0.9-1.9,0-3.6-0.2
      c-1-0.1-1.8,0-2.8-0.1c-0.4,0-2.5-1.1-3-0.4c-0.7,0.9,3.6,7.9,4.2,9c1.5,2.6,6.6,4.1,6.1,7.1c3.5-0.7,1.7,5.2,4.6,6.9
      c1.2,0.7,3.2,0.9,4.3,1.5c1.2,0.7,1.4,1.2,3.3,1.7c3.4,0.9,7.4,2.2,9.8,0.1c0.8-0.7,3.9-5.9,5-5.1c-1.7-2.2,2.7-7.9,2.9-10.2
      c-0.2,0.1-0.3,0.1-0.5,0.2c-0.5-2-0.3-3.8,0-5.4C326.8,369,328.4,366.4,327.5,363.9C327.2,363,327.8,364.7,327.5,363.9z"/>
  </g>
  <path class="st0" d="M173.6,192.5c-1.1-2.5-1-9.9-5.4-9.4c-2.5,0.3-1.1,2.3-2.2,3.9c-1.5,2.3-3.3,1.1-5,1.9c-2.8,1.3-3.6,4.7-2.1,7
    c0.8,1.4,1.4,1.4,2,3.2c0.5,1.5,1.1,3.2,1.4,4.8c0.6,2.8,0.4,6.6,0.2,9.4c0-0.3-0.7,2.4-0.7,2.2c0.1,1.6,1.2,2.8,1.3,4.3
    c-0.3,0-0.7,0.1-0.9,0.4c5.4-0.7,6.3-0.4,6.2-5.9c-0.1-3.2-1.3-7.4-0.1-10.4c0.2-0.6,1.7-1.9,2.1-2.5c0.5-0.8,1.2-2.2,1.6-3.1
    C172.7,196.5,174.4,194.5,173.6,192.5C173.3,192,173.8,193.1,173.6,192.5z"/>
  <g>
    <path class="st0" d="M364.7,162L364.7,162L364.7,162z"/>
    <path class="st0" d="M364.4,163c0.3,0.9,1.8,0.8,2.6,0.8c-0.1-0.2-2.5-1.1-2.2-1.8C364.8,162,365,163.4,364.4,163
      C364.8,163.9,365.3,163.7,364.4,163z"/>
    <path class="st0" d="M381.3,180c-0.7,1.7-4.3-4.5-4.5-4.6c0.3,0.9-2.1-1.3-2.5-1.8c-1.6-1.7-2.6-3.1-4.4-4.5
      c-0.9-0.7-2.5-1.1-3.1-1.6c-0.4-0.3-2.9-3.2-3-3c-0.2,0.3,0.5,2.2-0.1,2.3c-1.6,0.2-6.3-16.7-6.8-17.7c-1.9,1.8-2.8,2.5-5.1,4
      c-0.4,0.2-1.7,1.5-1.8,1.7c-0.9,1-1.2,0.5-1.6,2.4c-1,5.1-2.9,10-1.8,15.3c1-2.4,4.5-1.5,5.7,0.1c0.6-1.5,1.2-3.1,1.7-4.7
      c0.5,0.9,2.7,2.6,3.6,2.6c1.1,0,2-1.5,2.4-1.5c0.4,0,1,1.2,1,1.5c1.9-2.5,8.4,1.8,9.7,3.3c1.3,1.4,7.8,7.3,7.1,9
      c1-0.8,1.8,0.2,2.6-0.4C381.3,181.8,382.4,181,381.3,180C380.8,181.3,381.9,180.5,381.3,180z"/>
  </g>
  <path class="st0" d="M321.4,419.4c-0.5-2-0.2-5.8-3.3-5.8c-3,0-2.4,3.6-4.1,5.2c1.4,0,2,3.1,3.6,3.4c2.3,0.4,1.8-2.5,3.8-2.4
    C321.4,419.7,321.4,419.5,321.4,419.4C321.1,418.5,321.4,419.5,321.4,419.4z"/>
  <path id="gambie" class="st0" d="M79.1,176c-2,0.6-3.1-1.5-5.1-1.5c-1.3,0-1.5,1-2.2,1.2c-1,0.2-4.9-0.8-5.6,0.2c-1.2,1.6,4.8,0.5,4.9,0.5
    c-0.3,0.2-3.7,0.7-2.8,1.2c-0.5-0.4-3.2-0.7-3.5-0.5c0,0.6,0.1,1.2,0.4,1.8c0.1-0.4,6.8-1.7,7.6-1.9c2-0.5,0.9-0.7,3.4,0.2
    c0.9,0.3,2.9,1.2,3.9,0.4C80.9,176.6,80.6,175.5,79.1,176C78.6,176.1,79.6,175.8,79.1,176z"/>
  <g>
    <path class="st0" d="M382.7,328.1"/>
  </g>
  <circle cx="64" cy="170" r="1" stroke="none" stroke-width="0" fill="#a43b38" />
</g>
</svg>
