<svg id="senegalMap" version="1.1"  xmlns="http://www.w3.org/2000/svg" xmlns:xlink="http://www.w3.org/1999/xlink" x="0px" y="0px"
     viewBox="0 0 500 500" xml:space="preserve">
<style type="text/css">
    .st0{fill:#d4b8a5;}
    .st1{fill:none;stroke:#b3aba7;stroke-width:2;stroke-linecap:round;stroke-linejoin:round;}
    
    .st2{fill-rule:evenodd;clip-rule:evenodd;fill:#d4b8a5;stroke:#b3aba7;stroke-width:2;stroke-linecap:round;stroke-linejoin:round;}
    .st3{fill:#d4b8a5;stroke:#b3aba7;stroke-width:2;stroke-linecap:round;stroke-linejoin:round;}
</style>
<g id="Ziguinchor">
    <g id="XMLID_34_">
        <path id="XMLID_35_" class="st0" d="M74.2,358.6l0.5-0.4l0.3-0.8h0.5l0.4,1.3l-0.3,1.1l-1.6,2.2l0.4,0.6l0.1,0.6l-0.1,0.6
            l-0.4,0.6l0.9,0.2l0.8-0.6l1.5-1.8l1.3-0.4l1.5,0.3l1,0.8l-0.1,1.1l-2.5-0.8l-1.9,1.5l-1.2,2.6l-0.4,2.6l0.1,2.5l0.6,1.9l1.3,0.8
            l2.4-0.9l3.2-2.7l2.2-0.9l0.2-1.2l-0.5-2.6l0.1-1.6l0.3-1l0.6-0.8l1.4-1.3l0.3-0.2l0.3-0.3l0.4-0.7l0.2-0.6l0.3-2l0.4,2.6l-1,1.7
            l-1.4,1.5l-1,1.9l-0.1,1l0.3,0.8l0.6,0.5l0.9,0.2l1.2-0.3l0.7-0.7l0.6-0.8l0.9-0.7l0.3,1.5l2.7,2.3l1,1.3H95l0.5-6.1l0.2,1
            l0.4,0.9l0.7,0.6l1.1,0v0.6l-0.7,0.2l-0.7,0.5l-0.5,0.7l-0.1,0.7l0.4,0.5l0.7,0.3l0.7,0.2l0.3,0.2l0.5,1l1.1,0.9l2.4,1.4l3,1
            l0.7-0.5l0.5-0.8l0.4-0.8l0.2-0.4l0.7-0.2l1-0.7l0.8-0.2l2.3,0.5h0.9l0.8-0.2l1.4-0.6l0.8-0.2h2.7l1.8,0.5l0.8,0.1l0.4-0.2l1.5-1
            l0.8-0.3l3-0.5l2-1.3l0.3-2.5l0.3-0.5l0.8-1.5l0.1-0.3v-0.6h0.4l0,0l-0.1-0.6l0.2-1l0.3-0.7l0.6-4.6l0.2-0.4l0.4-0.5l0.8-0.7
            l0.2-0.4l0.1-0.5l0.1-1.5l0.2-0.8l-0.3-1.3l-0.1-0.8l0.1-0.9l3.3-5.3l2.9-6.1l0-0.5l-0.4-0.5l-0.5-0.2l-0.5-0.2l-0.5-0.3l-0.1-0.6
            l0.4-0.9l1.2-1.4l0.7-1.2l-4.7,0l-9.5-0.1l-16.1-0.1l-11-0.1l-12-0.1l-3.2,0l-2.5,0.6l-1.1,1.8l-0.2,0.7l-1.1,1.1l-0.5,0.6
            l-0.3,0.8l-0.1,1.7l0.3,0.6l0.1,1.2l-0.2,2l-0.7,3.1l-0.2,1.6l0.1,0.9l0.3,1.7l0.1,1l-0.3,0.9l-2.6,3.9l-0.4,1l-0.2,0.9l0.2,1.1
            L74.2,358.6z M140.4,384.9l-0.3-0.4l-2.3-3.3l-0.7-1.6l-1.3-1.9l-1-2.2l-0.2-2l0.1-0.4l-1.9-1.5l-1.3-0.7l-1.6-0.1l-1.1,0.6
            l-0.9,0.7l-1.1,0.3l-1.7,0.1l-1.3,0.3l-5.7,2.1l-0.4-0.5l-0.4-0.9l-0.6-0.7l-0.8,0.3l-1.7,1l-1.4-0.2l-1.4-0.5l-1.7-0.1l-1.3,0.7
            l-1.7,2.2l-1.4,0.7l-1.3-0.1l-2.4-1.1l-2.2-0.6l-2.4-1.4l-1.4-0.3l-1.3,0.4l-0.7,0.9l0,1.2l-1-0.6l-1-2.8l-1.3-1.6l-2.8,2
            l-0.5,0.7l-0.3,0.6l-0.4,0.6l-0.8,0.7l-2.4,1.5l-2.3-0.2l-1.6,0.1l-3.6,2.2l-0.5,0.8l-0.2,0.7l-0.7,0.7l-0.2,0.7v3.1l0.3,1l0.7,1
            l1.7,1.6l1.1,0.8l0.5,0.5l0.3,1.5l0.3,1l0.5,0.9l1.7-1.2l2.7-0.6l9.9,0.7l1.3-0.1l3.8-0.9l3.7,0l2.2-0.9l5.8-3.2l5-2.7l0.8-0.2
            l0.8,0.1l1.6,0.6l0.6,0.1l0.3-0.1l0.3-0.2l0.5-0.2l5.5-1l2.6,0.2l4.5,1.5l1.4,0.3l5.8-0.4L140.4,384.9L140.4,384.9z"/>
    </g>
    <g id="XMLID_26_">
        <path id="XMLID_27_" class="st1" d="M74.2,358.6l0.5-0.4l0.3-0.8h0.5l0.4,1.3l-0.3,1.1l-1.6,2.2l0.4,0.6l0.1,0.6l-0.1,0.6
            l-0.4,0.6l0.9,0.2l0.8-0.6l1.5-1.8l1.3-0.4l1.5,0.3l1,0.8l-0.1,1.1l-2.5-0.8l-1.9,1.5l-1.2,2.6l-0.4,2.6l0.1,2.5l0.6,1.9l1.3,0.8
            l2.4-0.9l3.2-2.7l2.2-0.9l0.2-1.2l-0.5-2.6l0.1-1.6l0.3-1l0.6-0.8l1.4-1.3l0.3-0.2l0.3-0.3l0.4-0.7l0.2-0.6l0.3-2l0.4,2.6l-1,1.7
            l-1.4,1.5l-1,1.9l-0.1,1l0.3,0.8l0.6,0.5l0.9,0.2l1.2-0.3l0.7-0.7l0.6-0.8l0.9-0.7l0.3,1.5l2.7,2.3l1,1.3H95l0.5-6.1l0.2,1
            l0.4,0.9l0.7,0.6l1.1,0v0.6l-0.7,0.2l-0.7,0.5l-0.5,0.7l-0.1,0.7l0.4,0.5l0.7,0.3l0.7,0.2l0.3,0.2l0.5,1l1.1,0.9l2.4,1.4l3,1
            l0.7-0.5l0.5-0.8l0.4-0.8l0.2-0.4l0.7-0.2l1-0.7l0.8-0.2l2.3,0.5h0.9l0.8-0.2l1.4-0.6l0.8-0.2h2.7l1.8,0.5l0.8,0.1l0.4-0.2l1.5-1
            l0.8-0.3l3-0.5l2-1.3l0.3-2.5l0.3-0.5l0.8-1.5l0.1-0.3v-0.6h0.4l0,0l-0.1-0.6l0.2-1l0.3-0.7l0.6-4.6l0.2-0.4l0.4-0.5l0.8-0.7
            l0.2-0.4l0.1-0.5l0.1-1.5l0.2-0.8l-0.3-1.3l-0.1-0.8l0.1-0.9l3.3-5.3l2.9-6.1l0-0.5l-0.4-0.5l-0.5-0.2l-0.5-0.2l-0.5-0.3l-0.1-0.6
            l0.4-0.9l1.2-1.4l0.7-1.2l-4.7,0l-9.5-0.1l-16.1-0.1l-11-0.1l-12-0.1l-3.2,0l-2.5,0.6l-1.1,1.8l-0.2,0.7l-1.1,1.1l-0.5,0.6
            l-0.3,0.8l-0.1,1.7l0.3,0.6l0.1,1.2l-0.2,2l-0.7,3.1l-0.2,1.6l0.1,0.9l0.3,1.7l0.1,1l-0.3,0.9l-2.6,3.9l-0.4,1l-0.2,0.9l0.2,1.1
            L74.2,358.6z M140.4,384.9l-0.3-0.4l-2.3-3.3l-0.7-1.6l-1.3-1.9l-1-2.2l-0.2-2l0.1-0.4l-1.9-1.5l-1.3-0.7l-1.6-0.1l-1.1,0.6
            l-0.9,0.7l-1.1,0.3l-1.7,0.1l-1.3,0.3l-5.7,2.1l-0.4-0.5l-0.4-0.9l-0.6-0.7l-0.8,0.3l-1.7,1l-1.4-0.2l-1.4-0.5l-1.7-0.1l-1.3,0.7
            l-1.7,2.2l-1.4,0.7l-1.3-0.1l-2.4-1.1l-2.2-0.6l-2.4-1.4l-1.4-0.3l-1.3,0.4l-0.7,0.9l0,1.2l-1-0.6l-1-2.8l-1.3-1.6l-2.8,2
            l-0.5,0.7l-0.3,0.6l-0.4,0.6l-0.8,0.7l-2.4,1.5l-2.3-0.2l-1.6,0.1l-3.6,2.2l-0.5,0.8l-0.2,0.7l-0.7,0.7l-0.2,0.7v3.1l0.3,1l0.7,1
            l1.7,1.6l1.1,0.8l0.5,0.5l0.3,1.5l0.3,1l0.5,0.9l1.7-1.2l2.7-0.6l9.9,0.7l1.3-0.1l3.8-0.9l3.7,0l2.2-0.9l5.8-3.2l5-2.7l0.8-0.2
            l0.8,0.1l1.6,0.6l0.6,0.1l0.3-0.1l0.3-0.2l0.5-0.2l5.5-1l2.6,0.2l4.5,1.5l1.4,0.3l5.8-0.4L140.4,384.9L140.4,384.9z"/>
    </g>
</g>
<polygon id="Thiès" class="st2" points="88,184 88.4,183.9 88.7,183.7 89,183.5 89.9,182.3 90.3,181.7 93.6,178.2 94,177.6 
    94.3,176.9 94.5,176.1 94.9,174.9 96,173.4 96.5,172.9 97.3,171.7 98,170.9 98.6,169.9 98.9,169.6 99.2,169.4 99.5,169.2 
    99.9,169.1 100.5,169.1 103.9,169.9 104.8,169.9 105.9,169.6 106.3,169.5 107,169.6 107.4,169.8 107.7,170.1 107.8,170.4 
    107.9,170.8 108.3,174.4 108.6,175.4 108.8,175.8 109.2,176 109.5,175.9 109.8,175.8 110.4,175.3 110.9,175.1 111.1,175.3 
    111.4,175.6 112,177 112.2,177.3 112.5,177.8 112.8,178.6 113,179.6 112.8,181.5 112.7,181.8 112.7,182.5 112.8,183.1 113,183.8 
    113.6,185.7 114,186.3 116.2,188.9 116.6,189.5 116.7,189.9 116.9,190.3 117.1,191.7 117.3,192.2 117.5,192.8 118,193.5 
    118.4,193.9 118.8,194.2 119.1,194.4 120.7,195 122.3,195.9 122,196.8 121.4,197.2 117.9,199.1 117.1,199.3 116.1,199.4 
    115.5,199.3 115.1,199.1 114.7,199 114.4,198.7 114.2,198.4 114,198.1 114,197.7 113.9,197.2 113.8,196.8 113.5,196.5 113,196.2 
    111.9,195.7 111.5,195.5 109.1,193.6 108.7,193.5 108.5,193.5 108.3,193.5 108.3,193.5 108.3,193.5 108.2,193.6 107.9,193.7 
    107.3,193.9 106.3,194 105.6,194 105.1,193.9 104.4,193.7 103.6,193.1 103.4,193 103.2,192.8 102.9,192.7 85.4,197.7 84,198.5 
    83.4,199.6 82.9,200.7 82.6,202.4 82.7,202.7 82.8,203 83.2,203.4 83.5,203.5 84.2,203.7 84.5,203.9 84.8,204.1 85.1,204.4 
    85.2,204.8 85.3,205.2 85.2,207.1 85,207.9 85,208.3 85.1,209.2 85.2,209.6 85.4,210 85.7,210.3 86.4,210.5 86.7,210.8 87,211 
    87.2,211.3 87.4,211.6 87.4,211.9 87.4,212.2 87.1,213.1 87,213.7 87,214.3 87.1,214.7 87.4,214.9 87.7,215.1 88.4,215.5 
    88.7,215.7 88.9,215.9 89.1,216.3 89.2,216.7 89.3,217.2 89.1,217.8 88.7,218.6 87.6,219.7 87.1,220.4 86.8,220.9 86.8,221.4 
    86.9,221.8 87,222.1 87.3,222.4 88.2,222.9 91.8,224.6 93.3,225.1 92.8,227.3 92.3,228.9 91.9,229.5 90,232 88.8,233.3 88.2,233.7 
    87.4,233.9 87.1,234.1 86.5,234.6 85.8,235.4 85.5,235.7 85.2,235.9 84.9,236.1 84.4,236.2 82.1,236.4 81.7,236.5 81.4,236.6 
    77.8,247.2 76.8,251.5 77,251.8 77.2,252.1 77.6,252.3 77.8,252.6 77.8,253.1 77.5,253.6 75.6,255.2 75.4,255.6 75.4,256.2 
    75.6,256.6 75.9,256.9 76,257.2 76,257.6 75.6,258 73.6,258.6 73,259.2 73,259.2 72.3,257.9 71.7,257.1 70.7,256.6 68.8,256.2 
    68.1,255.5 67.7,254.4 67.1,250.4 66.6,249.1 66,248.2 64.7,246.8 64,246.4 63.6,246.3 63.2,246 63.1,245 63.2,244.3 63.6,242.8 
    63.7,241.9 63.3,240.7 62.4,239.4 60.2,237 55,234.6 54.2,233.7 53.7,232.7 51.2,228.8 49.3,223.7 48.5,222.6 48.5,222.6 
    48.5,222.6 49.9,212.3 49.8,211.6 49.5,210.9 48.4,209 48.2,208.3 48.1,206.5 48.1,206.1 47.6,204.8 46.1,201.4 46.1,201.3 
    46.1,201.3 46.7,201 49.2,199 60.8,185.1 63.1,181.7 68.1,176 78.2,158 78.5,157.6 78.5,157.6 78.9,157.8 81.1,159.6 81.4,160.1 
    81.7,161 81.8,161.4 81.8,161.9 81.4,163.3 80.1,166 79.6,167.7 79.2,170.9 79.4,172.3 79.9,173.2 80.5,173.3 81.3,173.7 81.7,174 
    82,174.3 82.2,174.6 82.7,175.6 83.6,176.8 83.8,177 84.1,177.3 84.7,177.7 85.9,178.2 86.3,178.5 86.8,179.1 87,179.5 87.1,179.9 
    87,180.2 86.9,180.6 86.8,180.8 86.7,181.1 86.6,181.4 86.7,182.6 87,183.3 87.3,183.7 87.7,183.9 "/>
<polygon id="Tambacounda" class="st2" points="403.5,210.5 404,212.6 405.5,214 405.9,215 406.5,215.8 407.6,216.3 408.7,216.6 
    409.6,216.6 409.2,217.5 408.8,218.1 408.7,218.6 408.9,219.4 409.4,219.8 410.1,220 410.7,220.5 410.6,221.7 410.2,222.4 
    408.8,223.8 408.2,224.5 408.1,225.3 408,226.2 407.8,227 407.3,227.5 405.9,228.4 405.5,229.7 405.6,231.2 406.5,234.5 406.7,236 
    406.5,239.3 407.5,239.5 414.3,242 414.8,243 414.4,243.9 413.4,244.3 414,245.3 414.7,246.3 415.6,247 418.4,248.1 419.4,248.7 
    420.2,249.8 422.8,256.2 423,257.8 422.5,260.9 420.8,266.6 420.8,269.7 421.5,271.7 422.7,272.8 424.1,273.9 425.4,275.4 
    425.8,276.8 425.8,278.3 425.4,281.4 424.2,284.7 421.8,287.2 415.6,290.7 416.6,291.6 417.5,293.1 419,296 419.9,298.7 
    421.6,301.2 422.9,302.7 427.1,305.8 427.5,306.3 428.2,307.4 428.6,307.9 429.4,308.3 430,308.4 430.6,308.6 431.1,309.5 
    431,310.8 429.9,314.8 425.7,315.6 423.1,316.3 421.2,318.5 419.3,319.8 417.8,319.8 417.4,318 416.9,316.5 415,315.8 412.5,315.2 
    410.3,313.8 408.2,312.8 406.3,311.2 404.1,309.9 402.4,310.6 402.4,312.3 401.4,313.4 401.8,314.7 403.9,317.4 404.4,319.1 
    403.3,320.4 401.4,320.4 399,320 398.2,320.4 397.8,322.2 397.1,323.1 396.7,324.4 395.8,324.6 395,323.9 393.9,322.6 392.2,322.2 
    390.3,322.6 389.2,323.5 388.8,324.6 387.3,324.8 386.4,325.9 386.2,327.4 385.4,329 384.1,329.8 381.8,330.5 380,330.3 379,329.6 
    377.9,329 377.1,329.6 375.8,330.3 374.3,330.3 372.8,330.5 371.7,331.4 371.7,333.1 372.2,334.9 371.1,336.2 369.4,337.3 
    368.7,338.6 368.7,339.9 367.7,340.1 366.6,339.7 365.1,339.5 364.5,340.1 364.3,341.5 363.2,341.9 361.9,341.9 361.3,342.5 
    361.3,343.4 360.6,344.5 359.1,344.1 357.2,342.8 355.5,341 354.5,341 353.2,339.7 351.7,339 347.6,339 346.3,339.7 344.6,340.6 
    343.1,340.6 342.5,341.2 341.9,342.3 340.6,342.3 339.3,341.2 337.4,340.6 335.3,340.4 334.2,340.4 332.1,341.2 328.9,342.1 
    327.5,341.7 326.1,340.1 325.8,338.2 325.9,335.9 325.7,334.1 324.1,333.4 324.1,333 327.1,331.9 326.2,331.1 326.3,330.1 
    326.6,329.1 326.3,328.1 325.9,327.3 326.2,326.6 326.1,326.3 325.8,326 325.3,325.8 324.8,325.4 324.6,325 324.4,324.7 
    323.9,324.7 323.4,324.8 323.1,324.5 323.1,323.9 322.9,323.3 322.6,322.7 322.5,321.6 322.9,320.9 323.4,320.3 324.1,319.1 
    323.5,317.9 322.8,317.8 322.1,318.2 321.1,318.6 318.4,318.1 315.4,318.1 314.7,318.5 314.1,320.3 313.2,320.6 313.7,319 
    312.7,318.7 311.3,319.1 310.2,319.7 309.8,320.1 309.4,321 308.7,321.1 307.9,320.9 307.4,320.3 307.7,319.1 306.4,320 306.4,324 
    304.7,324.8 304.7,325.4 303.8,325.4 303.4,325.3 302.9,325 302.6,324.5 302.5,323.9 302.4,323.3 302.2,322.9 301.9,322.7 
    300.8,322.3 300.1,321.8 299.8,321.4 299.7,321 299.9,320.2 300,319.7 300,319.1 299.7,318.7 299.3,318.5 298.9,318.2 298.8,317.9 
    298.8,317.6 299.5,316.7 299.7,316.3 299.7,315.8 299.4,315.6 299,315.4 298.1,315.5 296.3,315.8 295.8,315.9 295.4,315.8 
    294.9,315.8 294.5,315.6 294,315.4 293.9,315 293.9,314.7 294.1,314.4 294.4,314.1 294.6,313.8 294.8,313.5 294.9,313.1 
    294.9,312.6 294.9,312.2 294.9,311.8 295,311.4 295.1,311 295.3,310.7 296.7,309.4 296.9,309.1 297,308.7 296.9,308.5 296.7,308.4 
    296,308.2 294.9,307.8 294.5,307.7 294,307.7 293.6,307.8 293.2,307.9 292.6,308.3 292.2,308.4 291.8,308.3 291.3,307.9 
    291.1,307.5 291.1,307.1 291.2,306.7 291.4,306.4 291.7,306 291.8,305.9 291.8,305.7 291.8,305 292.1,304.2 292.2,303.7 292,303.5 
    291.6,303.4 290.8,303.4 290,303.3 289.7,303.4 289.4,303.6 289.2,303.9 289.1,304.3 288.9,304.6 288.7,304.9 288.3,304.9 
    287.5,305 286.8,305.3 285.8,305.7 285.7,305.6 285.3,305 284.9,303.6 284.5,302.9 283.3,301.9 281.5,301 279.7,300.4 278.1,300.1 
    277.2,300.3 275.7,301.1 274.8,301.5 274.1,301.6 272.8,301.5 272,301.6 270.6,301.9 267.2,303.7 263,304.6 261.6,305.2 
    257.6,307.7 253.3,309.3 252.1,309.6 250.7,309.4 249,308.6 243.7,304.8 243.1,304.3 242.4,303.5 241.9,302.5 241,299.3 
    240.3,297.9 239.3,296.6 237.9,295.5 234.8,294 231.8,293.8 228.8,294.6 224.4,297.1 223.5,297.4 222.4,297 219.5,295.2 219,294.6 
    217.5,289.8 216.9,288.4 216,287.1 214.8,286.2 215.1,285.2 216.4,282.9 217.2,281.7 218.3,280.6 219,280.3 219.9,280.1 
    220.8,280.1 221.2,280 221.9,279.7 225.3,278.8 225.6,278.6 227.3,277.3 231.6,273.2 231.8,272.8 232,272.3 232.1,271.4 232.1,270 
    232.4,268.7 232.5,268.6 232.7,268.4 233.4,268.2 234.1,267.8 234.4,267.4 234.7,266.8 235.3,263.7 235.3,262.5 235.2,261 
    234.5,257.7 234.2,252 233.8,250.7 232.9,249.3 231.3,244.4 231.3,230.3 240.3,228.1 243.8,225.6 246,223 247.3,221.9 248.4,221.3 
    251.4,220.3 254.6,223.3 255.2,224.7 256.5,225.7 257.7,226.4 289.4,238.5 292.9,239 312.8,238.7 313.6,238.3 332.7,224.6 
    333.3,224.3 334.1,224 353.7,227.6 356.8,227.6 367.8,226.2 368.6,225.8 369.5,224.7 375.5,215.6 381,201.5 381.2,200.8 
    381.2,200.3 380.8,198.5 380.3,197.3 372.7,187.1 372.5,186.6 373.3,186.5 375.6,185.8 376.7,185.6 377.4,185.8 378,186.4 
    378.9,187.6 382.9,190 384.2,190.9 384.9,191.4 386.6,191.8 387.4,192.2 388,193 388.4,193.7 390.1,199.7 390.1,200.5 391.1,201.1 
    393.6,204 394.9,205.1 399.4,207.3 "/>
<polygon id="Sédhiou" class="st2" points="177.1,316.3 179.7,316.3 179.6,319.5 178.9,322.4 178.1,325.2 178.5,327.9 181,329.6 
    184.5,330.3 185.5,332 187,336 187.2,338.4 187.4,340.1 189.8,341.7 192.4,343.4 192.1,345.4 192.4,348 193.8,349.8 195.1,352 
    195.1,354.6 195.1,358.1 194.1,360.5 193.4,362.7 194,367.3 190.5,367.2 188.4,367.6 186.5,368.4 182.3,371.5 177.8,373.5 
    174,376.3 173.8,376.5 155.4,385.1 152.9,385.6 140.4,384.9 140.4,384.9 140.1,384.5 137.8,381.1 137.1,379.5 135.8,377.6 
    134.7,375.4 134.5,373.4 134.6,373 134.6,373 135.7,373.9 136.3,374.6 137.2,374.7 141.8,374.8 142.3,375.2 143.2,376.1 
    143.6,376.4 144.2,376.3 146.1,375.8 146.9,375.3 147.7,374.3 148.8,373.7 150.3,374.4 150.7,374 151.1,373.8 151.6,373.8 
    152.6,374.5 153,374.4 153.4,374.3 153.8,374.4 154.4,375 154.9,376.3 155.2,376.9 155.7,377.3 156.2,377.6 156.9,377.8 
    157.8,377.8 158.6,377.7 161.9,376.3 163.2,374.9 165.5,372 166.3,371.4 167.1,371 167.6,370.5 167.8,369.5 167.4,369 166.6,368.7 
    166.1,368.3 166.7,367.7 166,366 165.4,363.7 165.1,361.4 165.8,359.5 166.6,359 167.6,359 168.7,359.1 169.7,359 170.7,358.5 
    171.4,358 171.9,357.3 172.2,356.4 173.7,357.9 175.1,358.3 176,357.5 176.2,355.4 175,356.6 174,356.6 172.9,356.1 171.7,355.9 
    170.6,356.4 168.8,357.7 167.5,358 166.8,358 165.7,358.2 164.7,358.7 164.3,359.8 164.3,364.1 165.1,366.9 165.2,367.7 
    165.3,368.9 165.2,369.5 165,370 163.2,371.5 162.7,372.2 159,375.6 158,376.2 157.2,376.2 156.4,375.9 155.8,375.3 156.2,373.1 
    154,372.1 148.8,371.3 145.3,373.5 144.1,373.8 143.8,373.6 143.5,373 143,372.5 142.1,372.3 141.2,372.4 140,373.1 139.1,373.3 
    138.3,373.1 137.2,372.5 135.4,371.3 135.3,370.9 135.4,370.4 135.4,369.9 135.1,369.7 134.2,369.6 133.7,369.4 133.3,369.2 
    132.9,368.6 131.9,366.6 131.6,366.4 131.3,366.3 131,366 130.7,364.4 130.3,363.5 130.3,363.5 130.2,362.9 130.4,361.9 
    130.7,361.2 131.3,356.6 131.5,356.1 131.8,355.6 132.6,354.9 132.8,354.5 132.9,354 133,352.5 133.3,351.7 132.9,350.4 
    132.8,349.7 132.9,348.8 136.2,343.5 139.1,337.4 139.1,336.9 138.7,336.4 138.2,336.1 137.7,336 137.2,335.7 137.1,335.1 
    137.5,334.2 138.7,332.8 139.4,331.6 141.3,331.6 144.1,331.6 144.6,331.3 144.7,326 144.7,324.8 144.8,319.5 145.1,318.4 146,318 
    151,317.5 154.3,316.4 155.2,316.4 160.1,316.9 161.3,316.8 163.5,316 165.2,315.1 166.9,314.5 169.1,314.6 "/>
<polygon id="Saint-Louis" class="st2" points="208.3,67.3 208.9,68.4 209.6,69.4 211,69.6 213.2,69.1 225.6,70 226.5,69.9 
    228.9,69.2 229.6,69.2 230.3,69.4 232.3,70.4 233.1,70.5 233.9,70.5 237,69.6 237.7,69.6 240.7,70.2 241.5,70.2 242.2,70.1 
    243,69.9 243.7,69.6 245.6,68.4 246.3,68.2 247.8,68.1 252.4,69.9 252.9,70.3 253.2,70.9 253.2,71.7 252.8,73.1 252.9,73.7 
    253.6,74 256.4,73.8 257.1,74.1 257.4,74.7 257.4,76 257.8,76.6 258.6,77 260.3,77.1 261.2,77.3 261.7,77.6 263,79.2 263.5,79.7 
    265.2,81 267.7,83.9 272,87.8 274.4,89.2 274.9,89.7 276.2,91.2 276.8,91.6 278.2,92.2 278.9,92.5 279.4,93.1 279.4,93.6 
    278.9,94.7 278.8,95.4 279,95.9 279.7,96.8 280,97.5 280,98.1 279.6,99.5 279.9,100.7 281.2,101.4 284,102.2 284.6,102.6 
    285.7,103.5 286.2,104 286.6,104.6 287.2,106.6 287.5,107.4 288,108 288.6,108.6 289.2,109 289.9,109.2 290.4,109.1 291,108.9 
    292.2,108.2 293.4,107.3 293.9,106.7 295.2,104.9 295.7,104.3 296.3,104 297,103.8 297.6,103.7 298.3,103.8 298.2,104.8 
    297.8,106.1 297.5,107.1 297.7,107.9 294.6,114.2 287.3,117.2 286.2,120 278,127.4 266.4,137 255.6,145.5 252.7,143.3 247.2,140.5 
    241.1,137.3 238,132.9 234.3,127.4 226.1,121.6 222.3,121.9 216.4,118.8 215.2,118.3 173.6,118.2 173.1,123.3 161.7,124.1 
    160.9,123.6 145.9,106.4 144.4,104.9 143.5,104.4 143,104.9 142.8,105.2 141.6,106.1 140.2,106.8 139.9,107 139.6,107.3 139.4,108 
    138.6,109.4 138.1,110 137.6,110.3 123.9,118.1 123.9,118.1 123.5,118.3 121,120.4 120.5,121 120.3,121.3 120.1,121.6 119.9,122.4 
    119.7,122.8 119.4,123.1 116.2,124.7 115.5,125.3 115,126.2 114.1,128.7 113.8,129.3 113.2,129.9 112.2,130 111.1,130.1 
    109.9,130.3 108.8,130.7 107.3,131.8 105.9,132.3 104.5,132.5 92.7,132.8 92.7,132.8 92.6,132.8 92.5,132.6 92.5,132.6 94.2,129.7 
    94.9,125.6 95.1,117.3 95.5,116.5 96.5,113.1 97.8,110.1 98.1,105 98.6,103.4 99.7,102.5 102.4,101.9 103.5,101.1 103.9,100.3 
    104.3,99.5 107.2,86.6 107.6,83.6 108.2,82.2 109.2,80.8 110.5,79.5 112.1,78.5 113.7,78.2 116.1,78.6 116.9,78.7 117.8,78.5 
    118.5,78.2 120.6,76.7 121.5,76.3 122.3,76.1 123.3,76.3 123.9,76.7 124.5,77.3 125.3,78.6 126.6,79.9 128,80.6 129.7,80.8 
    131.4,80.6 131.9,80.2 132.5,79.9 133,79.8 133.6,80 134.5,80.3 135,80.4 135.5,80.3 138.4,79 139.4,78.9 142,79.5 142.6,79.5 
    144.4,79.2 145.5,79.2 148.8,80.3 151.2,80.4 151.8,80.6 153.5,81.4 154.7,81.7 155.8,81.7 156.9,81.3 157.9,80.7 159.5,79.2 
    160.3,78.6 161.4,78.5 164.6,79.1 165.6,79 166.5,78.6 167.2,77.9 169,75.4 169.9,74.6 170.9,74.1 172,74.2 172.7,74.8 173.1,75.5 
    173.6,76.2 174.5,76.6 175.6,76.6 176.6,76.3 179.7,75.1 180.8,74.8 183.1,74.7 186.6,75.3 187.7,75.2 195.5,74 197.1,73.4 
    197.5,73.1 197.9,72.7 197.9,72.1 197.6,71.6 196.5,70.5 196,69.5 196.2,68.5 196.8,67.7 197.8,67.4 198.9,67.8 199.6,68.5 
    200.1,69.4 200.9,70.1 201.4,70.3 201.9,70.2 202.5,70 202.9,69.7 203.3,69.2 203.4,68.7 203.7,67.6 204.1,66.9 204.9,66.4 
    206.5,65.8 207.3,66.2 208.3,67.2 "/>
<polygon id="Matam" class="st2" points="314.3,111.4 316.9,110.4 318,110.4 318.4,110.8 318.9,111.8 319.3,112.3 321.3,113.6 
    321.7,114.2 321.9,114.8 322,116.1 322.1,116.7 323.1,119.2 323.6,120 324.1,120.7 324.8,121.4 326.6,122.8 327,123.4 327.2,124 
    327.1,124.6 326.9,125.9 326.9,126.5 327,127.1 327.3,127.5 328.6,129.1 329.3,130.2 329.6,131.5 329.7,133 329.5,133.6 
    329.3,134.2 329.1,134.9 329.2,135.5 329.6,136 330.1,136.4 331.2,137.1 331.8,137.6 332.3,138.1 333.1,139.3 333.4,139.9 
    333.5,140.5 333.3,141 332.2,142.8 332,143.4 331.9,144 332,144.7 332.7,146.6 333.8,146.5 336,146.1 337,146.2 337.6,146.4 
    338.9,147.4 339.4,147.6 341.1,148.1 342,148.6 342.8,149.3 343.3,150.2 343.5,151.3 343.1,154.1 343.1,154.8 343.2,155.4 
    343.5,156.1 343.9,156.4 346.1,157 347.2,156.9 348.3,156.2 349.2,155.4 350.3,154.8 351.4,154.6 352.6,155.2 353,155.7 
    353.3,156.4 353.5,158.5 353.8,159 354.5,160 354.8,160.5 355,161.1 355,163.6 355.3,164.9 355.9,166 356.8,167 361.1,169.9 
    362,170.9 362.5,172.2 362.1,173.2 360.9,173.4 358.4,173.1 357.7,173.7 358.1,174.6 359.8,176.3 360.4,176.8 361,177.1 
    361.7,177.1 363.3,176.7 364.1,176.7 364.8,177 365.4,177.4 365.8,177.9 366,178.5 366,179.1 365.6,181 365.7,181.6 365.9,182.3 
    366,182.5 367.8,183.1 368.4,183.7 370.5,185.8 372.5,186.6 372.5,186.6 372.7,187.1 380.3,197.3 380.8,198.5 381.2,200.3 
    381.2,200.8 381,201.5 375.5,215.6 369.5,224.7 368.6,225.8 367.8,226.2 356.8,227.6 353.7,227.6 334.1,224 333.3,224.3 
    332.7,224.6 313.6,238.3 312.8,238.7 292.9,239 289.4,238.5 257.7,226.4 256.5,225.7 255.2,224.7 254.6,223.3 251.4,220.3 
    248.4,221.3 247.3,221.9 246,223 243.8,225.6 240.3,228.1 231.3,230.3 231.4,229.1 231.5,228.3 231.3,227.3 230.9,226.9 
    229.7,226.4 217.9,222.9 216,221.9 214.6,220.8 217.4,218.7 218.4,212.7 221.6,210.5 224.2,205.1 221.1,198 219,190.6 224,188.7 
    232.2,187.6 237.9,185.9 234.8,184.3 236.1,176.1 238.5,165.7 232.4,166.5 220.3,160.3 222.9,156.1 223.5,142.5 225.6,141.6 
    229.3,140.3 232.2,138.4 238,132.9 241.1,137.3 247.2,140.5 252.7,143.3 255.6,145.5 266.4,137 278,127.4 286.2,120 287.3,117.2 
    294.6,114.2 297.7,107.9 298,108.1 298.8,108.4 299.1,108.6 299.2,108.7 299.3,109 299.4,109.1 299.6,109.2 300,109.4 300.2,109.5 
    300.7,109.9 300.9,110 301.4,110.1 301.8,110 303.8,108.9 304.2,108.8 305.6,108.8 305.9,108.8 306.4,108.6 308.6,107.7 
    312.5,106.8 313.4,106.4 313.8,106.3 314.3,106.3 314.7,106.4 314.9,107.4 313.7,109.7 313.5,110.9 "/>
<polygon id="Louga" class="st2" points="161.7,124.1 173.1,123.3 173.6,118.2 215.2,118.3 216.4,118.8 222.3,121.9 226.1,121.6 
    234.3,127.4 238,132.9 232.2,138.4 229.3,140.3 225.6,141.6 223.5,142.5 222.9,156.1 220.3,160.3 232.4,166.5 238.5,165.7 
    236.1,176.1 234.8,184.3 237.9,185.9 232.2,187.6 224,188.7 219,190.6 221.1,198 224.2,205.1 221.6,210.5 218.4,212.7 217.4,218.7 
    214.6,220.8 212.9,218.5 212,217.8 210.8,218.1 209.6,218.7 203.2,222.7 201.8,223.2 200.1,223.6 197.6,223.4 186.5,221.1 
    182.8,219.7 177,216.2 174.4,214.6 172.5,212.5 172.1,210.9 171.7,206.4 171.5,206 171.2,205.7 170.6,205.6 169.7,205.5 
    164.9,205.9 164.2,205.8 163.1,205.5 162.5,205.1 161.8,204.6 161.5,204.4 159.5,204.3 155.6,204.4 153.8,205 152.5,203.9 
    152.1,203 152.1,202 152,201.5 151.8,201.2 151.6,200.9 150.3,200.1 148.5,199.3 148.2,199.1 147.9,198.8 147.7,198.5 147.3,197.4 
    147.1,197.1 146.8,196.9 146.3,196.7 146,196.5 145.7,196.3 145.5,196 145.4,195.6 145.3,195.1 145.2,194.2 145.3,193.5 
    144.2,193.3 126.4,193.4 124.7,193.8 122.3,195.9 120.7,195 119.1,194.4 118.8,194.2 118.4,193.9 118,193.5 117.5,192.8 
    117.3,192.2 117.1,191.7 116.9,190.3 116.7,189.9 116.6,189.5 116.2,188.9 114,186.3 113.6,185.7 113,183.8 112.8,183.1 
    112.7,182.5 112.7,181.8 112.8,181.5 113,179.6 112.8,178.6 112.5,177.8 112.2,177.3 112,177 111.4,175.6 111.1,175.3 110.9,175.1 
    110.4,175.3 109.8,175.8 109.5,175.9 109.2,176 108.8,175.8 108.6,175.4 108.3,174.4 107.9,170.8 107.8,170.4 107.7,170.1 
    107.4,169.8 107,169.6 106.3,169.5 105.9,169.6 104.8,169.9 103.9,169.9 100.5,169.1 99.9,169.1 99.5,169.2 99.2,169.4 98.9,169.6 
    98.6,169.9 98,170.9 97.3,171.7 96.5,172.9 96,173.4 94.9,174.9 94.5,176.1 94.3,176.9 94,177.6 93.6,178.2 90.3,181.7 89.9,182.3 
    89,183.5 88.7,183.7 88.4,183.9 88,184 87.7,183.9 87.3,183.7 87,183.3 86.7,182.6 86.6,181.4 86.7,181.1 86.8,180.8 86.9,180.6 
    87,180.2 87.1,179.9 87,179.5 86.8,179.1 86.3,178.5 85.9,178.2 84.7,177.7 84.1,177.3 83.8,177 83.6,176.8 82.7,175.6 82.2,174.6 
    82,174.3 81.7,174 81.3,173.7 80.5,173.3 79.9,173.2 79.4,172.3 79.2,170.9 79.6,167.7 80.1,166 81.4,163.3 81.8,161.9 81.8,161.4 
    81.7,161 81.4,160.1 81.1,159.6 78.9,157.8 78.5,157.6 78.5,157.6 83.3,151.2 92.8,135.2 93.1,134.4 93,133.6 92.6,132.8 
    92.7,132.8 92.7,132.8 104.5,132.5 105.9,132.3 107.3,131.8 108.8,130.7 109.9,130.3 111.1,130.1 112.2,130 113.2,129.9 
    113.8,129.3 114.1,128.7 115,126.2 115.5,125.3 116.2,124.7 119.4,123.1 119.7,122.8 119.9,122.4 120.1,121.6 120.3,121.3 
    120.5,121 121,120.4 123.5,118.3 123.9,118.1 123.9,118.1 137.6,110.3 138.1,110 138.6,109.4 139.4,108 139.6,107.3 139.9,107 
    140.2,106.8 141.6,106.1 142.8,105.2 143,104.9 143.5,104.4 144.4,104.9 145.9,106.4 160.9,123.6 "/>
<polygon id="Kédougou" class="st2" points="417.8,319.8 419.3,319.8 421.2,318.5 423.1,316.3 425.7,315.6 429.9,314.8 430.1,315.6 
    430.7,315.8 432.7,316.8 433.2,317.2 433.5,317.7 434,319.2 434.3,319.7 435.1,320.4 435.6,320.5 436,320 439,317.7 439.2,316.3 
    439.6,314.7 440.4,313.5 441.5,312.9 442.5,313.1 443,313.6 443.4,314.4 444.2,315 444.9,315 446.3,314.7 448.1,314.7 448.4,315 
    448.3,316.1 448.5,316.8 449.3,316.9 450.2,316.7 450.8,316.4 450.8,318 451.3,319.5 453.1,322 454.7,323.5 455.1,324.2 454.9,325 
    454,326.3 453.7,327.1 454,328.5 454.7,329.4 455.5,330.2 456.2,331.2 456.2,333.8 456.6,335 457.9,335.3 458.9,335.9 459.7,336.6 
    460.7,337.1 461.8,337.4 462.6,337.7 462.5,338.3 462.1,338.8 462,339.3 463,340.7 463.4,341.6 463.7,342.1 464,342.3 464.6,342.6 
    464.5,343 464.1,343.3 463.8,343.6 463.8,344.2 463.6,345.7 463.4,346.4 464.6,346.6 465.4,346.3 466,345.4 466.1,344.1 
    466.7,344.8 467.1,345.5 467.2,346.4 467.4,348.3 467.1,348.8 466.7,349.1 466.1,349.6 465.7,349.6 465.3,349.3 464.8,349.2 
    464.3,349.4 464.2,349.9 464.6,350.3 465,350.7 465.2,351.1 464.9,351.8 464.5,352.6 464.2,353.4 464.4,354.6 464.3,354.9 
    464.1,355.2 463.9,355.6 463.9,356.1 464.2,356.2 464.6,356.3 464.7,356.3 464.8,356.4 465.1,356.8 465.4,357.3 465.6,357.9 
    465.8,358.7 465.9,359.6 465.7,360.4 465.2,360.9 465.2,361.3 466,362.6 466.1,363.3 465.5,364.3 464.5,364.5 463.5,364.8 
    462.8,366.8 462.2,367.1 461.8,367.7 461.8,368.8 462.1,369 462.7,369.2 463.2,369.6 463.6,370.4 463.6,371.1 463.2,373.5 
    463.3,374.3 463.5,374.8 463.5,375.3 463.4,376.2 461.9,376.9 461.3,377.4 462.1,377.6 462.7,378 463.5,379.5 464.1,380 
    464.1,379.4 464.5,378.6 465,378.4 465.5,379.6 465.6,380.2 466.1,381.5 466.2,382.1 466.8,381.2 467,380.8 467.9,382.1 
    467.7,383.8 467.2,385.8 467.1,387.8 465.1,387.7 460.3,385.9 457.9,385.7 451.6,386.2 448.6,386.7 443,388.8 440.3,389.3 
    434.3,389 432.8,388.7 428.4,386.8 428.3,386.7 428.2,386.6 427.7,386.6 427.4,386.8 426.6,387.3 423.8,388.9 422.8,389.1 
    421.3,388.9 416.9,387.4 415.1,387.5 413.8,388.1 411.4,390.3 408.7,391.9 396.4,395.1 395.2,394.5 393.2,391.3 391.9,390.3 
    388.7,389.2 387.2,388.8 386,388.8 384.7,389 383.3,389.6 381.2,390.7 380.6,390.9 380.5,390.9 379.5,390.9 379.2,390.6 
    379.2,390.1 378.8,389.4 376.8,387.1 375.6,386.1 374.1,385.5 372.7,385.4 368,385.6 366.5,385.4 366,384.8 365.7,384.1 
    364.6,383.5 362.4,383.4 361.7,383.1 360.9,382.4 360.8,381.8 360.9,381.3 360.9,381 359.1,379.4 356.3,377.9 353.7,377.9 
    352.4,380.9 352.2,382.3 351.4,383.1 350.2,383.1 348.9,382.6 347.5,382.8 346.2,382.7 345.1,382.1 344.3,380.9 344,379.4 
    344.2,378.2 345.3,375.7 345.6,374.4 345.7,372.9 345.4,371.5 344.4,370.5 343.3,370.3 342.1,370.5 340.7,370.6 339.4,369.9 
    338.7,370.7 338.2,370.3 337.7,370.3 337.2,370.3 336.5,370.3 335.6,370.6 335.3,370.7 335,370.5 334.3,369.7 333.9,369.6 
    333.3,369.6 332.1,369.9 331.5,370 330.8,369.9 329.9,369.4 329.3,369.2 328.7,369.2 326.5,369.7 326.2,369.8 326,370 325.8,370.2 
    325.4,370.2 325,370.1 324.4,369.7 324.1,369.5 323.8,369.5 323.8,369.4 324.1,368.3 323.5,366.8 322.5,366.4 322.1,366.5 
    321.7,366.6 321.2,366.9 320.4,367 318.7,367 317.8,366.9 317,366.6 316.1,366.1 315.5,365.7 315,365 314.9,364.6 315,364.2 
    315.3,363.6 315.5,363.2 315.6,360.4 315.5,360 315.3,359.5 315.1,358.9 314.6,358.3 314.5,357.8 314.4,357.4 314.6,357 
    314.7,356.6 315.1,356 315.3,355.7 315.3,355.2 315.1,354.9 314.8,354.6 314.7,354.4 315,354.3 315.3,354.4 315.8,354.4 
    316.1,354.2 316.2,353.7 315.9,353.2 315.6,351.4 315.3,351.1 314.3,350.4 313.6,349.7 313.4,349.1 313.1,347.9 312.8,347.4 
    312.6,347 312.7,346.7 313,346.3 313.1,345.9 312.8,343.6 312.7,343.4 312.4,343.2 311.9,343.1 311.4,342.9 311.3,342.6 
    311.4,342.2 311.6,341.9 311.7,341.5 311.5,341.2 311,340.7 310.5,340 309.7,339.1 308.5,338.4 308.4,338 308.4,337.6 308.4,337.1 
    308.4,336.6 308.1,336.4 307.8,336.2 307.4,335.8 306.4,334.7 305.9,333.6 305.7,332.9 305.7,331.7 305.3,331.1 305.3,330.7 
    305.4,330.2 305.5,329.8 305.5,328.6 305.5,328.1 305.5,326.5 305.3,326 305,325.6 304.7,325.4 304.7,324.8 306.4,324 306.4,320 
    307.7,319.1 307.4,320.3 307.9,320.9 308.7,321.1 309.4,321 309.8,320.1 310.2,319.7 311.3,319.1 312.7,318.7 313.7,319 
    313.2,320.6 314.1,320.3 314.7,318.5 315.4,318.1 318.4,318.1 321.1,318.6 322.1,318.2 322.8,317.8 323.5,317.9 324.1,319.1 
    323.4,320.3 322.9,320.9 322.5,321.6 322.6,322.7 322.9,323.3 323.1,323.9 323.1,324.5 323.4,324.8 323.9,324.7 324.4,324.7 
    324.6,325 324.8,325.4 325.3,325.8 325.8,326 326.1,326.3 326.2,326.6 325.9,327.3 326.3,328.1 326.6,329.1 326.3,330.1 
    326.2,331.1 327.1,331.9 324.1,333 324.1,333.4 325.7,334.1 325.9,335.9 325.8,338.2 326.1,340.1 327.5,341.7 328.9,342.1 
    332.1,341.2 334.2,340.4 335.3,340.4 337.4,340.6 339.3,341.2 340.6,342.3 341.9,342.3 342.5,341.2 343.1,340.6 344.6,340.6 
    346.3,339.7 347.6,339 351.7,339 353.2,339.7 354.5,341 355.5,341 357.2,342.8 359.1,344.1 360.6,344.5 361.3,343.4 361.3,342.5 
    361.9,341.9 363.2,341.9 364.3,341.5 364.5,340.1 365.1,339.5 366.6,339.7 367.7,340.1 368.7,339.9 368.7,338.6 369.4,337.3 
    371.1,336.2 372.2,334.9 371.7,333.1 371.7,331.4 372.8,330.5 374.3,330.3 375.8,330.3 377.1,329.6 377.9,329 379,329.6 380,330.3 
    381.8,330.5 384.1,329.8 385.4,329 386.2,327.4 386.4,325.9 387.3,324.8 388.8,324.6 389.2,323.5 390.3,322.6 392.2,322.2 
    393.9,322.6 395,323.9 395.8,324.6 396.7,324.4 397.1,323.1 397.8,322.2 398.2,320.4 399,320 401.4,320.4 403.3,320.4 404.4,319.1 
    403.9,317.4 401.8,314.7 401.4,313.4 402.4,312.3 402.4,310.6 404.1,309.9 406.3,311.2 408.2,312.8 410.3,313.8 412.5,315.2 
    415,315.8 416.9,316.5 417.4,318 "/>
<polygon id="Kolda" class="st2" points="229.2,317.9 231.9,317.6 234.3,317 235.1,317.3 237.2,319.2 237.9,319.9 238.8,320.4 
    239.9,320.7 242.2,320.8 243.1,321.1 243.9,321.9 244.5,322.7 245.2,323.3 246,323.8 248.6,325.2 250.5,325.8 252.5,325.9 
    256.6,325.5 260.5,326.3 262.6,326.2 264.2,325.4 267.7,322.8 268.8,322.3 270.1,322.3 273.2,321.2 276.1,321.1 279,320.3 
    284.5,319.9 288.1,318.3 290.2,315.1 290.5,311.3 288.7,307.8 288,307.1 286.4,306.2 285.8,305.7 286.8,305.3 287.5,305 
    288.3,304.9 288.7,304.9 288.9,304.6 289.1,304.3 289.2,303.9 289.4,303.6 289.7,303.4 290,303.3 290.8,303.4 291.6,303.4 
    292,303.5 292.2,303.7 292.1,304.2 291.8,305 291.8,305.7 291.8,305.9 291.7,306 291.4,306.4 291.2,306.7 291.1,307.1 291.1,307.5 
    291.3,307.9 291.8,308.3 292.2,308.4 292.6,308.3 293.2,307.9 293.6,307.8 294,307.7 294.5,307.7 294.9,307.8 296,308.2 
    296.7,308.4 296.9,308.5 297,308.7 296.9,309.1 296.7,309.4 295.3,310.7 295.1,311 295,311.4 294.9,311.8 294.9,312.2 294.9,312.6 
    294.9,313.1 294.8,313.5 294.6,313.8 294.4,314.1 294.1,314.4 293.9,314.7 293.9,315 294,315.4 294.5,315.6 294.9,315.8 
    295.4,315.8 295.8,315.9 296.3,315.8 298.1,315.5 299,315.4 299.4,315.6 299.7,315.8 299.7,316.3 299.5,316.7 298.8,317.6 
    298.8,317.9 298.9,318.2 299.3,318.5 299.7,318.7 300,319.1 300,319.7 299.9,320.2 299.7,321 299.8,321.4 300.1,321.8 300.8,322.3 
    301.9,322.7 302.2,322.9 302.4,323.3 302.5,323.9 302.6,324.5 302.9,325 303.4,325.3 303.8,325.4 304.7,325.4 305,325.6 305.3,326 
    305.5,326.5 305.5,328.1 305.5,328.6 305.5,329.8 305.4,330.2 305.3,330.7 305.3,331.1 305.7,331.7 305.7,332.9 305.9,333.6 
    306.4,334.7 307.4,335.8 307.8,336.2 308.1,336.4 308.4,336.6 308.4,337.1 308.4,337.6 308.4,338 308.5,338.4 309.7,339.1 
    310.5,340 311,340.7 311.5,341.2 311.7,341.5 311.6,341.9 311.4,342.2 311.3,342.6 311.4,342.9 311.9,343.1 312.4,343.2 
    312.7,343.4 312.8,343.6 313.1,345.9 313,346.3 312.7,346.7 312.6,347 312.8,347.4 313.1,347.9 313.4,349.1 313.6,349.7 
    314.3,350.4 315.3,351.1 315.6,351.4 315.9,353.2 316.2,353.7 316.1,354.2 315.8,354.4 315.3,354.4 315,354.3 314.7,354.4 
    314.8,354.6 315.1,354.9 315.3,355.2 315.3,355.7 315.1,356 314.7,356.6 314.6,357 314.4,357.4 314.5,357.8 314.6,358.3 
    315.1,358.9 315.3,359.5 315.5,360 315.6,360.4 315.5,363.2 315.3,363.6 315,364.2 314.9,364.6 315,365 315.5,365.7 316.1,366.1 
    317,366.6 317.8,366.9 318.7,367 320.4,367 321.2,366.9 321.7,366.6 322.1,366.5 322.5,366.4 323.5,366.8 324.1,368.3 323.8,369.4 
    323.8,369.5 320.6,368.6 297.1,367.7 271.3,367.6 252.4,367.5 245.5,367.5 219.8,367.4 213.9,367.3 194,367.3 193.4,362.7 
    194.1,360.5 195.1,358.1 195.1,354.6 195.1,352 193.8,349.8 192.4,348 192.1,345.4 192.4,343.4 189.8,341.7 187.4,340.1 
    187.2,338.4 187,336 185.5,332 184.5,330.3 181,329.6 178.5,327.9 178.1,325.2 178.9,322.4 179.6,319.5 179.7,316.3 182.1,315.8 
    184.5,315 186.6,313.6 188.1,311.6 188.5,309.5 188.8,304.9 189.8,303.3 191.5,301.5 193,300 194.6,299.3 196.6,300.6 199.9,303.7 
    203.5,306.3 203.5,306.3 203.5,306.3 203.5,306.3 208.3,308.8 210.7,309.4 213.5,309.6 214.6,310 217,311.5 218.4,311.9 
    219.9,312.2 220.6,312.7 222.1,314.7 224.1,316.5 226.6,317.6 "/>
<polygon id="Kaolack" class="st2" points="158.1,286.7 159.4,286.1 160.7,284 162.3,281.5 167.3,283.7 170.2,284 172.3,284 
    176,285.7 172.9,288 170.7,290.4 169.8,291.7 169.1,293.3 168.5,294.9 168.4,295.4 168.3,296.4 168.1,299.4 167,299.8 163.4,299.8 
    158.9,299.8 154.4,299.8 149.9,299.7 145.4,299.7 140.8,299.7 136.3,299.7 131.8,299.7 127.3,299.6 125.8,299.6 125.7,299.6 
    125.5,299.1 125.1,297.7 124.1,296.3 121.8,294.2 121.2,293.4 120.8,292.7 120.5,291.7 120.2,289.2 119.9,288.2 119.4,287.6 
    118.9,287.2 117.7,286.5 115.4,284.6 114.7,283.8 114.5,283.2 114.4,282.6 114.4,281.5 114.5,280.9 114.7,280.4 115.1,280 
    116.1,279.1 117,278 117.3,277.4 117.6,276.8 117.6,276.2 117.6,275.7 116.8,270.5 116.3,269.8 115.4,269 113.9,267.1 113.9,266.4 
    114.1,265.9 114.9,264.8 115.1,264.2 115.2,263.4 115.2,262.4 114.8,260.8 114.4,260 113.9,259.4 112.9,258.5 110.8,257.2 
    110.4,256.8 110,256.6 109.6,256.5 104.9,256.4 104.9,256.4 105.4,256 104.3,256 104.3,256 105.4,254.6 106.1,252 109.7,246.6 
    111.7,244.2 112.6,243.5 113.3,243.1 115.6,242.9 120,242 123.7,241.7 124.4,241.7 124.4,242.1 124.8,242.4 130.9,243.5 132.5,243 
    133.8,241.6 135.3,240.9 138.9,241 144.3,241.2 146.6,239.8 146.5,247 145.1,250.3 143.3,254.4 142.5,257.1 142.5,262 142.5,265.8 
    145.7,266.3 146.7,267.7 147,269.6 147.8,271.2 150.4,273.9 153.6,275.8 153.8,277.7 153.1,279.6 153.1,281.5 154.1,283.7 
    156.2,285.9 "/>
<polygon id="Kaffrine" class="st2" points="200.1,223.6 201.8,223.2 203.2,222.7 209.6,218.7 210.8,218.1 212,217.8 212.9,218.5 
    214.6,220.8 216,221.9 217.9,222.9 229.7,226.4 230.9,226.9 231.3,227.3 231.5,228.3 231.4,229.1 231.3,230.3 231.3,244.4 
    232.9,249.3 233.8,250.7 234.2,252 234.5,257.7 235.2,261 235.3,262.5 235.3,263.7 234.7,266.8 234.4,267.4 234.1,267.8 
    233.4,268.2 232.7,268.4 232.5,268.6 232.4,268.7 232.1,270 232.1,271.4 232,272.3 231.8,272.8 231.6,273.2 227.3,277.3 
    225.6,278.6 225.3,278.8 221.9,279.7 221.2,280 220.8,280.1 219.9,280.1 219,280.3 218.3,280.6 217.2,281.7 216.4,282.9 
    215.1,285.2 214.8,286.2 213.4,285 210.7,284.1 203.4,283.8 199.1,282.2 197.5,282.1 192.2,284 186.8,287.6 185.2,287.9 
    184.6,287.5 183.2,285.6 182.5,284.9 179.4,284.4 176,285.7 172.3,284 170.2,284 167.3,283.7 162.3,281.5 160.7,284 159.4,286.1 
    158.1,286.7 156.2,285.9 154.1,283.7 153.1,281.5 153.1,279.6 153.8,277.7 153.6,275.8 150.4,273.9 147.8,271.2 147,269.6 
    146.7,267.7 145.7,266.3 142.5,265.8 142.5,262 142.5,257.1 143.3,254.4 145.1,250.3 146.5,247 146.6,239.8 148.5,238.3 
    150.2,236.2 153,232.9 154.9,232.7 156.6,231.8 160,229 161.5,227.8 163.2,227.5 166.7,226.9 170.6,226.2 173.3,225.5 175.5,223.1 
    177,216.2 182.8,219.7 186.5,221.1 197.6,223.4 "/>
<path id="Fatick" class="st3" d="M125.5,299.1l-0.4-1.5l-1-1.3l-2.3-2.1l-0.6-0.8l-0.4-0.7l-0.3-1.1l-0.3-2.5l-0.3-1l-0.5-0.6
    l-0.5-0.4l-1.1-0.7l-2.3-1.9l-0.7-0.7l-0.2-0.6l-0.1-0.6l0.1-1.1l0.1-0.5l0.2-0.5l0.4-0.5l1.1-0.9l0.8-1.1l0.4-0.6l0.2-0.6l0.1-0.6
    l0-0.6l-0.8-5.1l-0.5-0.8l-0.9-0.8l-1.5-1.9l0-0.6l0.2-0.6l0.8-1.1l0.2-0.6l0.1-0.8l-0.1-0.9l-0.3-1.6l-0.5-0.8l-0.5-0.6l-1-0.8
    l-2.1-1.4l-0.4-0.3l-0.4-0.2l-0.4-0.1l-4.7-0.1l0,0l0,0l-1.2,0.6l-0.4,0.3l-0.7,0.4l-0.6-0.3l-0.6-0.5l-0.6-0.3l-0.9,0.3l-1.1,1.4
    l-2.3,0.7l-1,0.9l-1.9,2.3l-1.2,1.1l-3.3,2.1l0.7,0.8l0.9,0.2l1-0.2l0.9-0.3l-1,0.8l-0.9,0.5l-0.6,0.7l0,1.6l-1.6-0.6l-1,0.6
    l-0.8,1.1l-1,0.9l0.1-1l-0.7-0.6l-1-0.3l-2.1-0.2l-0.9,0l-0.9,0.3l-1.7,1.3l-0.4,0.5l-0.2,0.7l-0.1,1.3l0.2,2.4l0.3,1.2l0.4,1
    l-0.5,0.9l-0.1,1.6l0.4,1.5l0.9,0.7l0.7,0.3l0.1,0.8l0,0.9l0.2,0.7l0.7,0.3l0.6-0.5l0.7-1.4l0.5-0.4l0.8-0.5l0.4-0.4l0.4-0.7
    l0.1-0.6l0.3-0.6l0.8-0.7l1.4-0.4l1.5-0.2l1.3-0.4l0.7-1h0.5l1,0.3l1-1.2l0.7-1.9l0.6-3.1l0.7-1.5l1.6-2.3l-0.1,1.2l-1.6,7l-0.4,1
    l1.1,0.5l0.3,1.5l0.1,1.9l0.6,1.7l-1.1,0.2l-0.8-0.8l-0.5-1.4l-0.1-1.5l-2.5,0.5l0.4,1.2l0.2,0.3l-0.4-0.3l-1.1-0.5l-0.4-0.3
    l-0.4,1.1l-2.6,3.1l-0.7,1l-0.2,0.7l-0.1,1.8l-0.6,2.9l0.3,1.4L87,294l1.4,0.4l1.4-0.4L91,293l0.5-1.6l1,0.1l0.8-1l0.4-1.4l-0.2-1.2
    L95,288l0.1,0.9l-0.7,1.1l-0.9,0.9l0.4,0.2l0.7,0.6L95,292l-1.8,1.4l-1.8,0.9l-1.2,1.2l0,2.1l0.4,0.8l0.7,1.1l0,0l4.6,0l4.5,0l4.5,0
    l4.5,0l4.5,0l4.5,0l4.5,0l3,0l0,0L125.5,299.1z M172.3,222.9l-1.7-1.4l-9.6-3.8l-2.4-1l-1.7-1.7l-1.3-0.2l-2,0.7l-1.5,0.2l-3.6-2.6
    l-0.3,0.2l-0.9,0.5l-0.4,0.3l-0.3,0.3l-0.2,0.4l-0.1,0.4l-0.3,6.4l-0.2,0.9l-0.2,0.4l-0.2,0.3l-3.9,3.9l-0.3,0.2l-1.8,0.9l-2.4,0.6
    l-6.1,0.7l-1,0l-7.9-1.4l-1.1-0.3l-0.7-0.3l-0.8-0.8l-0.9-0.6l-0.7-0.3l-2.4-0.8l-2.4-0.3l-0.8,0l-3.8,0.8l-0.5,0l-0.5-0.1l-0.6-0.4
    l-0.4-0.3l-0.6-0.5l-0.3-0.2l-0.7-0.1l-6.2-0.3l-3.2,0.3l-0.9,0.3l-0.9,1.4l-0.5,2.3l-0.5,1.5l-0.4,0.6L90,232l-1.2,1.3l-0.6,0.4
    l-0.8,0.2l-0.3,0.2l-0.6,0.5l-0.7,0.9l-0.3,0.3l-0.3,0.2l-0.4,0.2l-0.4,0.1l-2.4,0.2l-0.4,0.1l-0.3,0.1l-3.7,10.6l-1,4.3l0.2,0.3
    l0.3,0.2l0.3,0.2l0.2,0.3l0,0.4l-0.3,0.6l-1.9,1.6l-0.2,0.4l0,0.6l0.2,0.4l0.3,0.3l0.2,0.3l-0.1,0.4l-0.3,0.4l-2,0.7l-0.6,0.6l0,0
    l0.6,1.3l1.2,3.6l0.4,2.2l0.4,14.4h0.4l-0.3-7.1l0.3-2.1l0.3-0.7l1.4-1.7l0.4-0.6l0.2-1.1l0.2-0.6l1.2-1.4l0.1-0.7l-0.9-1l0.5-0.3
    l0.6-0.1l1.6,0l0.8-0.3l0.9-1.5l1-0.3l-2,2.3l-1.2,0.4l-0.1,0.5l-1.7,3.1l1.7,0.2l1.6,0.5l1.5,0.3l1.6-0.5l0.7-0.7l0.9-1.7l0.6-0.8
    l0.9-0.6l1.6-0.4l0.7-0.3l0.7-0.8l1.9-3.3l0.2-0.6l0.1-0.7l0.3-0.6l0.6-0.2l0.8,0.2l0.7,0.3l0.7,0.1l0.9-0.5l-0.8-0.8l-0.2-1.1
    l0.4-1.1l1.1-0.6l-0.1,1.6l2,0.8l3.5,0.1l0,0l1-1.4l0.7-2.5l3.6-5.5l2-2.4l0.8-0.7l0.7-0.4l2.3-0.2l4.4-1l3.7-0.3l0.6,0.1l0,0.4
    l0.4,0.3l6.2,1.1l1.5-0.5l1.3-1.4l1.5-0.7l3.5,0.2l5.4,0.2l2.3-1.5l1.9-1.5l1.7-2.1l2.9-3.3l1.9-0.2l1.7-0.9l3.4-2.8l1.5-1.2
    l1.7-0.3l3.5-0.5l3.9-0.7l2.7-0.7L172.3,222.9z"/>
<polygon id="Diourbel" class="st2" points="106.3,194 107.3,193.9 107.9,193.7 108.2,193.6 108.3,193.5 108.3,193.5 108.3,193.5 
    108.5,193.5 108.7,193.5 109.1,193.6 111.5,195.5 111.9,195.7 113,196.2 113.5,196.5 113.8,196.8 113.9,197.2 114,197.7 114,198.1 
    114.2,198.4 114.4,198.7 114.7,199 115.1,199.1 115.5,199.3 116.1,199.4 117.1,199.3 117.9,199.1 121.4,197.2 122,196.8 
    122.3,195.9 124.7,193.8 126.4,193.4 144.2,193.3 145.3,193.5 145.2,194.2 145.3,195.1 145.4,195.6 145.5,196 145.7,196.3 
    146,196.5 146.3,196.7 146.8,196.9 147.1,197.1 147.3,197.4 147.7,198.5 147.9,198.8 148.2,199.1 148.5,199.3 150.3,200.1 
    151.6,200.9 151.8,201.2 152,201.5 152.1,202 152.1,203 152.5,203.9 153.8,205 155.6,204.4 159.5,204.3 161.5,204.4 161.8,204.6 
    162.5,205.1 163.1,205.5 164.2,205.8 164.9,205.9 169.7,205.5 170.6,205.6 171.2,205.7 171.5,206 171.7,206.4 172.1,210.9 
    172.5,212.5 174.4,214.6 177,216.2 175.5,223.1 173.3,225.5 172.3,222.9 170.6,221.5 161,217.7 158.6,216.6 156.9,214.9 
    155.6,214.7 153.5,215.4 152,215.6 148.4,213 148.1,213.2 147.2,213.6 146.8,213.9 146.5,214.2 146.4,214.6 146.2,215 145.9,221.3 
    145.7,222.2 145.5,222.6 145.3,222.9 141.4,226.8 141.1,227 139.3,227.9 136.8,228.5 130.7,229.1 129.7,229.1 121.8,227.7 
    120.7,227.4 120,227.1 119.3,226.3 118.3,225.6 117.6,225.3 115.2,224.5 112.8,224.2 112,224.3 108.2,225.1 107.7,225.1 107.2,225 
    106.6,224.6 106.2,224.3 105.6,223.8 105.3,223.5 104.6,223.4 98.4,223.1 95.2,223.4 94.2,223.7 93.3,225.1 91.8,224.6 88.2,222.9 
    87.3,222.4 87,222.1 86.9,221.8 86.8,221.4 86.8,220.9 87.1,220.4 87.6,219.7 88.7,218.6 89.1,217.8 89.3,217.2 89.2,216.7 
    89.1,216.3 88.9,215.9 88.7,215.7 88.4,215.5 87.7,215.1 87.4,214.9 87.1,214.7 87,214.3 87,213.7 87.1,213.1 87.4,212.2 
    87.4,211.9 87.4,211.6 87.2,211.3 87,211 86.7,210.8 86.4,210.5 85.7,210.3 85.4,210 85.2,209.6 85.1,209.2 85,208.3 85,207.9 
    85.2,207.1 85.3,205.2 85.2,204.8 85.1,204.4 84.8,204.1 84.5,203.9 84.2,203.7 83.5,203.5 83.2,203.4 82.8,203 82.7,202.7 
    82.6,202.4 82.9,200.7 83.4,199.6 84,198.5 85.4,197.7 102.9,192.7 103.2,192.8 103.4,193 103.6,193.1 104.4,193.7 105.1,193.9 
    105.6,194 "/>
<polygon id="Dakar" class="st2" points="48.5,222.6 46.3,219.6 44.2,217.7 43,216.8 41.6,216.1 40,215.9 38.8,215.5 35.7,213.9 
    35.3,213.4 32.9,213.4 30.8,213.1 28.9,213.3 27.3,214.4 27.9,215.2 28.8,215.4 28.3,216.5 27.3,217 27.6,217.2 28,217.7 28.3,218 
    27.8,219.1 27.6,219.1 27.3,219.6 26.4,218.9 21.5,212.9 20.3,211.8 32.3,208.6 35.9,205.6 46.1,201.3 46.1,201.3 46.1,201.4 
    47.6,204.8 48.1,206.1 48.1,206.5 48.2,208.3 48.4,209 49.5,210.9 49.8,211.6 49.9,212.3 48.5,222.6 48.5,222.6 "/>
    <circle cx="47" cy="220" r="3" stroke="none" stroke-width="0" fill="#a43b38" />
</svg>
